<svg xmlns="http://www.w3.org/2000/svg" viewBox="4 16 90 69">
  <path fill-rule="evenodd" d="M32 63q-4-1-6-4l-1-8 3-5 7-1 6-5 6-1 4 2h4q3 0 5-6a1 1 0 1 0-3-1q-1 4-3 4h-2l-3-1q-2-3-2-7a1 1 0 0 0-3-1l1 7-4 1h-2l-1-2-1-4a1 1 0 1 0-3 0l1 6 3 2-4 3-6 1-3-1-2-4q0-2-2-1l-1 1a9 9 0 0 0 5 7l-3 5h-2l-2-1a1 1 0 0 0-2 3l4 1h2v4c-11 1-16-10-9-17l1 2q2 4 5 4a1 1 0 1 0 1-3l-3-2-2-4q3-8 11-11l-1 5q1 5 3 7h2v-2l-2-5 1-5q6-6 13-5h-1l-1 5a1 1 0 0 0 3 0l1-3 1-2q8-3 14-1l-5 3q-3 5-2 9a1 1 0 1 0 3-1h-1l3-6 6-3q6 0 10 3l-2 1-6 3-2-1a1 1 0 1 0-1 2l3 2 3 4v5l-1 1a1 1 0 1 0 2 2l1-2 1-6 4-1a1 1 0 1 0 0-3l-6 1-1-2 4-3h3q9 1 11 9h-7a1 1 0 1 0 1 3h4l3 1c5 6 4 16-4 20h-7l-7-2 2-2a1 1 0 1 0-3-2q0 2-3 2l-1 1-9 3-10 4-8-1 5-2a1 1 0 0 0-2-2zm33-2-7 3 3 4 5 4q11 1 16-8l-7-1zm-1 13-9-9-5 1 8 10q4 7 7 4 2-1 0-4zM43 51q3-3 2-6a1 1 0 0 0-3 0l-1 5-2 2-3 1-5-2a1 1 0 1 0-1 3l6 2 5-2 5 3 8-1a1 1 0 0 0-1-2h-6zm31-3H64l-3-1 2-4a1 1 0 0 0-3-1q0 3-2 3l-7 1a1 1 0 1 0 0 3l8-1q1 3 4 3h10l2 2 3 2a5 5 0 0 0 6-1 1 1 0 1 0-2-2l-1 1h-2l-2-2-1-1 2-1 3-3a1 1 0 1 0-3-1l-2 2z"/>
</svg>