<svg xmlns="http://www.w3.org/2000/svg" viewBox="0 0 114 22"><g fill="none" fill-rule="evenodd"><path fill="#fff" d="M27 20.85c.94.64 2.99 1.15 4.86 1.15 1.5 0 3.13-.36 4.42-1.2a5.8 5.8 0 0 0 2.55-4.78c0-2.1-.67-3.81-4.16-6.03l-1.34-.87c-2.73-1.74-3.1-2.78-3.1-4.32 0-1.88 1.51-3.23 3.71-3.23 2.4 0 3.7.98 4.25 1.63 0-.96.14-2.41.23-2.7-.2-.02-.76-.1-1.5-.22-.7-.14-1.66-.28-2.8-.28-4.02 0-6.33 2.44-6.33 5.36 0 1.96.8 3.79 3.87 5.75l1.43.93c2.52 1.63 3.16 2.75 3.16 4.49 0 2.1-1.28 3.79-4.07 3.79a6.4 6.4 0 0 1-4.95-2.22c.03.79-.14 2.36-.23 2.75m25.3 1.05c2.11 0 4.25-.4 5.2-.78.06-.54.26-1.56.46-2.1-1.27.86-3.24 1.24-5.4 1.24-6.24 0-8.66-4.15-8.66-7.82a6.8 6.8 0 0 1 2.14-5.28c.95-.83 2.53-1.75 5.45-1.75 3.1 0 5.23.95 6.21 1.89.03-.8.2-1.86.37-2.32-1.01-.27-3.04-1.02-6.41-1.02-3.68 0-6.1 1.08-7.68 2.5a8.1 8.1 0 0 0-2.7 6.23 8.8 8.8 0 0 0 3.04 6.76c2.05 1.7 4.67 2.45 7.98 2.45m9.45-6.95c0 2.96-.11 5.82-.22 6.65a13 13 0 0 1 2.72-.02 72 72 0 0 1-.22-6.33v-.73c0-.08.03-.08.11-.08h3.23c.17 0 .23.05.34.16 1.1 1.37 3.37 4.58 4.75 5.85.99.97 1.58 1.23 2.81 1.23.6 0 1.38-.05 1.7-.18a9 9 0 0 1-2.29-1.86c-1.68-1.73-3.45-3.99-5.03-5.93 1.97-1.27 3-2.88 3-4.85a4.3 4.3 0 0 0-2.18-3.77c-1.07-.62-2.67-.83-4.45-.83-.9 0-2.86.1-3.34.1-.42 0-.76 0-1.24-.05.25.78.31 3.34.31 6.6zm2.28-9.1c0-.11 0-.14.08-.17.34-.08 1.04-.1 1.8-.1 2.73 0 4.42 1.45 4.42 3.87a4 4 0 0 1-1.83 3.4c-.28.19-.68.27-1.4.27-1.3 0-2.5-.08-2.99-.2-.05 0-.08-.02-.08-.15zm14.79 9.1c0 2.96-.09 5.85-.2 6.65a13 13 0 0 1 2.76-.03c-.17-.67-.23-3.74-.23-6.62v-4.04c0-3.23.11-5.8.17-6.63-.2.03-.82.08-1.6.08-.37 0-.9 0-1.16-.02.17.59.26 3.3.26 6.57zm7.54 0c0 2.96-.1 5.74-.2 6.65.23-.05.96-.08 1.47-.08.4 0 .93 0 1.26.06-.14-1-.22-3.75-.22-6.55V6.1c0-.4.03-.43.11-.46.2-.08.99-.1 1.5-.1q1.93-.01 2.97.66a3.5 3.5 0 0 1 1.72 3.18c0 2.62-2.08 3.64-4.42 3.75.14.3.34.94.4 1.16 3.57 0 6.32-1.97 6.32-5.26 0-1.5-.76-2.7-1.38-3.23-1.04-.89-2.41-1.5-5.37-1.5-1.46 0-2.67.07-3.37.07-.36 0-.76 0-1.04-.02.14.8.25 3.3.25 6.57zm11.67-8.73a13 13 0 0 1 3.35-.38c1.63-.05 2.25-.05 3.4-.05v9.16c0 2.96-.09 5.85-.2 6.65a12 12 0 0 1 2.73-.02 96 96 0 0 1-.2-6.74V5.8c1.8 0 2.87.05 3.91.1 1.6.09 2.3.2 2.7.47.03-.65.14-1.62.28-2.19-.45.11-2.28.2-3.74.2h-8.1a19 19 0 0 1-3.7-.22c-.06.54-.29 1.67-.43 2.07"/><path fill="#6f9eff" d="M.23 15.79c0 2.64-.07 5.2-.18 5.92a12 12 0 0 1 2.54-.02c-.16-.6-.2-3.34-.2-5.9v-3.6c0-2.88.1-5.16.15-5.9-.18.02-.75.07-1.48.07-.33 0-.83 0-1.06-.02.16.52.23 2.95.23 5.85zm10.03 5.9c-.21-1.6-.26-7.58-.29-11.92 2.18 2.13 8.7 9 10.67 10.7C22.1 21.75 22.4 22 22.56 22c.13 0 .18-.12.18-1.2l-.02-4.17c.02-3.89.15-9.12.28-10.34a12 12 0 0 1-2.2.02c.18 2.23.26 8.69.28 11.76-2.07-1.56-9.63-9.46-11.86-11.5-.47-.4-.65-.57-.75-.57-.16 0-.2.1-.2 1.2 0 3.62-.09 12.79-.24 14.51.13-.02.96-.07 1.2-.07q.5-.01 1.03.05"/></g></svg>