<svg xmlns="http://www.w3.org/2000/svg" viewBox="0 0 350 216" fill="currentColor">
<g>
	<polygon points="215.8,61.5 215.8,92.5 246.5,92.5 277.2,92.5 277.2,61.5 246.5,61.5"/>
	<polygon points="215.8,123 215.8,154 246.5,154 277.2,154 277.2,123 246.5,123"/>
	<polygon points="308,0 184.8,0 184.8,30.5 308,30.5 308,184.8 184.8,184.8 184.8,215.5 308,215.5 338.8,215.5
		338.8,0"/>
	<polygon points="30.8,30.5 154,30.5 154,0 30.8,0 0,0 0,215.5 30.8,215.5 154,215.5 154,184.8 30.8,184.8"/>
	<rect x="154" y="30.5" width="30.8" height="154"/>
</g>
</svg>
