<?xml version="1.0" encoding="UTF-8"?>
<svg id="map-svg" viewBox="0 0 1200 695.27" xmlns="http://www.w3.org/2000/svg">
  <!-- Generated by tools/build-basemap.mjs from Natural Earth 10m physical data + Terrarium relief. -->
  <!-- Corrected equirectangular projection (standard parallel 35°N) via geoToSvg(). -->
  <defs>
    <linearGradient id="seaGradient" x1="0" y1="0" x2="0" y2="1">
      <stop offset="0%" stop-color="#bfe0ef"/>
      <stop offset="100%" stop-color="#8fbdd9"/>
    </linearGradient>
    <linearGradient id="landGradient" x1="0" y1="0" x2="0" y2="1">
      <stop offset="0%" stop-color="#ecdcb0"/>
      <stop offset="100%" stop-color="#dac99c"/>
    </linearGradient>
    <clipPath id="content-clip">
      <rect x="40" y="40" width="1120" height="615.27"/>
    </clipPath>
    <!-- Land geometry stored once; referenced via <use> for clip, fill and outline. -->
    <path id="land-shape" d="M683.6,481.5L683.7,481.9L683.2,481.4L683.6,481.5ZM416.4,214.4L417.5,216.4L420.6,218.1L420.6,218.8L421,218.6L422.5,219.3L424.2,219L425.1,220.5L426.8,221.4L430.5,222.2L431.6,221.6L434,221.9L436.4,222.8L435.5,223.4L435.5,224.6L438.5,227.2L437.8,227.8L437.3,228.9L437.2,230.1L437.7,231L437.2,231.2L437.9,232.2L438,233.6L439.1,235.1L439.1,237.3L441.2,238.7L441.6,239.6L443,239.5L445.4,240.3L448.5,239.6L448.2,242.2L448.6,243L447.9,245.5L446.3,246.4L445.4,246.4L444,244.4L442.8,245.2L443.3,245.8L442.4,246.1L440.8,244.1L441.2,243.6L440,242.1L439,241.8L437.7,242L437.9,240.8L437.1,240.5L437.9,239.4L437.2,237.6L436.4,237.2L436,237.3L436.2,237.8L435.5,237.7L436.6,235.9L436.3,235.5L435.5,236.3L435.1,236.3L435.2,235.7L434.8,235.7L435.4,234.5L432.7,233.8L433.9,233.1L433.2,231.4L429.5,231.7L427.6,231.2L422.2,231.2L421.2,229.3L420.6,229.6L421.8,228L421.8,227L421.2,226L418.1,224.7L417.9,223.5L416.7,222.6L416.5,222L414.7,220.9L413,219L409.7,216.7L408,216L405.9,216.2L405,215.2L403.1,214.7L402.8,215.1L403.8,215.5L403.5,216.2L399.3,217L399.4,215.9L405,213.4L405.3,212.7L406.4,212.5L406.6,211.3L407.6,210.7L409.6,210.6L412.4,209.5L414.7,210.9L414.5,211.5L414.8,212L415.9,212.5L416.4,214.4ZM499.5,199.9L498.7,201.4L501.1,203.1L502.1,204.6L503.1,205.2L502.9,205.8L503.4,206.8L503.9,206.9L504.2,208.3L505.1,209.2L504.7,210.5L503.4,210.4L502.5,209.7L502.7,208.1L502.2,207.2L500.2,207.4L503.3,210.6L503.3,211.3L502.6,211.6L499.9,212L497.5,211.5L495.7,210.5L492.3,210.1L491.2,208.6L490.5,208.3L490.9,207.8L492.5,207.6L493.1,206.8L494.3,206.4L496.2,204.9L495.6,204L494.3,203.8L492.9,204.2L490.7,207.3L489.8,207.8L486.8,206.9L483.4,204.8L483.8,204.1L483.9,203.3L483.6,203.1L484,202L485.7,200.8L486.2,201.5L488.9,201.2L489.3,200.5L489.7,201L490.6,200.3L492.6,199.8L492.8,199.4L492.6,198L498.1,198L497.9,198.7L499.7,199.6L499.5,199.9ZM1160,40L1160,511.1L1157.6,511.6L1148.8,517.5L1147.8,518L1146.9,517.8L1146.1,516.5L1146,514.4L1145.4,513.2L1144,512.8L1142.8,513L1141.8,512.6L1138.9,513.2L1138.6,511.5L1138,510.9L1138.2,509.5L1137.9,509.3L1137.4,510.4L1136.5,510.9L1135.5,509.8L1132.5,508.3L1131.4,506.2L1129.8,505.5L1130.6,504.8L1132.3,505L1133.7,504.6L1136.9,505.8L1137.7,506.7L1139.2,504.1L1139.4,503.2L1138.4,503L1137.9,501.2L1136.7,502.2L1136.7,501.2L1135.8,501.5L1135.1,500.8L1131.5,500.9L1130.7,501.4L1130.5,502.1L1132.1,502.7L1133,503.8L1132.5,504.4L1130.2,504.2L1128.1,506.7L1128.5,507L1128.1,507.7L1128.3,508.5L1129.8,510L1130.4,512.9L1130,514.4L1130,516.5L1129.1,517.5L1123.7,517.5L1122,516.6L1122.5,518.8L1122.2,519.4L1121.1,520L1119,519.6L1118.9,520L1119.7,520.4L1118.6,521L1115.5,520.6L1113.4,519.9L1109.9,517.7L1107.3,517L1105.1,517.3L1103.1,518.4L1102.6,515.5L1102.2,514.9L1102.6,516.4L1102.3,517.6L1103.3,520.5L1103.9,524.4L1105.5,527.3L1106.2,527.3L1107.3,530.4L1109.1,533.5L1108.9,534.2L1108.3,534.3L1106.4,533.1L1104.7,532.7L1103,533L1098.6,536.7L1097.4,538.6L1096.1,539.3L1095.7,540.3L1099.4,539.5L1099.8,539.7L1099,540.3L1098.9,541.2L1100,541.7L1101.2,541.3L1101.4,540.4L1102.3,540.4L1103.6,539.3L1104.7,540.6L1105.8,541L1106.8,540.8L1106.7,543.9L1107.7,547.5L1108.4,552.1L1110.3,555.5L1111.8,556.3L1111.8,558.2L1113.2,560.9L1115,561.5L1114.6,562.6L1114.8,563.8L1114.3,563.4L1114.6,564.1L1113.9,564.3L1113.9,565L1114.8,564.6L1115.3,567.4L1118,570.1L1118.2,572.7L1118,573.5L1117.3,573.2L1117.1,573.7L1118.1,573.6L1118.7,572.7L1119,573L1118.5,574.8L1118.6,576L1121.3,579.5L1120.8,581.9L1122.3,584.8L1122.3,585.3L1126.2,586.7L1126,587.3L1124.9,587.5L1124.8,588.2L1126.8,590.1L1128.7,592.8L1128.5,594.8L1127.5,596.2L1128,593.6L1127.9,593.1L1126.5,595.2L1127.1,593.4L1126.8,592.8L1125.8,596.5L1126.2,596.7L1126.7,595.7L1126.8,597.6L1127.5,596.9L1127.7,598.3L1128,598.4L1128.6,597.6L1128.6,599.1L1128.1,599.2L1128.5,600.2L1127.8,599.8L1127.3,600.2L1128.4,600.4L1129.2,599.5L1129.4,599.9L1129,601L1129.1,601.5L1129.6,601.6L1129.6,600.3L1131.1,599.9L1133.5,601.7L1133.8,602.1L1133.3,602.5L1133.7,602.7L1134.2,602.4L1134,602L1135,602.4L1136,602.5L1137,602L1138.7,602.5L1140.5,604.6L1140.8,605.8L1140.2,605.6L1140,604.8L1139.4,605.6L1137.8,605.4L1137.1,606L1136.9,605.4L1136.4,605.4L1135.4,606L1137.8,607.6L1138.7,606.5L1139.4,606.9L1138.4,608.1L1138.3,609.8L1139.8,608.8L1140.8,609.3L1140.5,610L1141,614.1L1141.5,614L1141.7,614.8L1142.3,614.5L1142.4,613.6L1143.2,614L1143.4,613.7L1143.5,614.1L1143.1,615.5L1142.3,615.6L1142.5,616L1143.4,616.6L1144.2,615.4L1144.1,616.2L1146.7,616.6L1145.7,615.1L1146.5,614.6L1147.3,615.2L1148,614.5L1147.6,616.3L1148,617.5L1149.1,618.6L1151.6,622.5L1156.4,625.8L1158.4,625.9L1160,627.3L1160,629.9L1159.5,631.5L1160,632.8L1160,649.8L1159.3,650.5L1160,651.8L1159.7,653.2L1159.9,655.3L787.7,655.3L786.8,653.7L783,652.5L782.4,651.5L780.6,646.8L778.7,643.8L776.7,638.2L774.4,633.9L770.7,629.5L768.9,624.3L768.4,624.4L765.5,621.1L762.5,616.2L762.8,614.6L762,613L759.6,610L757.9,608.7L755.7,605.5L754.3,602.5L754,599.9L752.3,597.5L751,594.5L749.8,593.7L749,591.1L746.9,588.2L744.6,586.6L746.4,585.8L746.1,585L744.5,584.9L741.5,582.8L740.6,583L740.9,583.5L739.9,583L738,584.2L736.1,584L735.7,584.5L735.6,583.5L736.3,583.1L735.4,582.9L734.5,584.5L734.2,584.2L734.9,583.5L734.9,583.1L734.2,583.1L734,583.7L733.6,583.7L733.6,583.3L733.2,583.5L732.4,583.1L731.9,582.1L731.5,582.6L731.1,582.3L730.9,583.1L730.1,583.5L730.7,584.5L730.1,584.5L729.8,585.8L729.2,585.9L729.4,585.6L729,583.6L728.1,583.7L728,583.1L729.5,581.4L729.6,580.9L730.4,581.1L730.2,580L730.7,579.8L730.9,577.7L731.3,577.9L731.3,577.4L730.9,577.4L732,575.7L732.7,572.9L734.5,568.9L733.8,564.2L735.5,558.6L735.6,556.5L735.1,556.1L736,554L736.2,552.5L735.9,551.2L736.5,549.8L737.5,544.8L738.4,544.2L738.1,542.8L738.2,542.3L738.8,542.3L738.5,541.2L738.9,540.4L739.1,537.3L739.9,534.5L738.8,533.6L737.5,536L736.8,536L736.1,536.6L735.1,538.1L735.3,538.3L734.9,539L734.5,539.2L734.7,539.5L732.6,542.1L732.9,542.8L732.4,544.2L732.4,545.9L731.5,547.1L730.9,549.1L731.2,553.1L730.1,553.8L729.9,554.5L730.1,557.4L729.4,558L729.4,559.9L729.7,560.6L729.5,561.7L726.3,568.5L726.7,569.6L725.1,571.3L725.3,571.6L724.7,572.2L724.4,574.1L723.4,576.4L723.8,578.2L723.6,578.9L724.7,580.9L723.9,584.1L724.4,585.1L724,587.5L724.2,587.7L723.2,588L722.4,589.5L721.3,589.8L721.5,590.1L721,591.6L720.7,592L719.8,591.7L719.4,592.9L719.6,593.3L719.3,593.7L718,594L718.2,594.8L719.2,594.8L719,595.2L719.4,595.9L719,595.7L719,596.2L717.3,594.2L714.2,593.7L713.5,593.2L711.7,590.8L709.3,588.9L708.6,589.1L708.2,588.2L708,588.4L706.2,586.5L705.4,586.1L705.4,585.2L704,584.3L704,583.7L702.8,581.9L702.9,581.4L701.8,580.7L701.3,578.9L699.8,576.8L696.2,574.4L694.3,571.6L692.5,570.2L691.2,568.3L691.6,568.3L691.4,567.2L690.9,567.1L690.7,567.6L691.2,568.1L690.4,567.4L690.1,565.4L689.5,563.8L690.4,560.8L688.9,558.3L688.7,556.1L689,555.5L688.6,553.5L689,553.1L688.1,551.6L687.5,551.7L686.2,550.5L685.7,549.3L682.8,545.8L680.8,544.4L680.3,542.6L679.5,541.9L678.9,540.4L678.9,538.6L676.8,537.1L676.4,536.7L676.6,536.2L676.2,536.7L676.4,537.1L676,537.1L676.3,534.3L675.9,532.9L675.1,532.2L675.3,527.6L674.2,525.6L672.9,524.6L673.5,523.8L673.5,522.8L672,521L672.4,520.2L671.7,519.4L672.2,519.1L672.2,518.2L671.6,519.3L672,520.5L671.5,519.8L670.4,519.9L669.4,520.9L669.2,522.6L670.3,523.1L667,527.6L666.2,529.2L666,531.2L665.5,532.5L666.9,534.8L668.6,536.1L672.3,540.1L673.7,544.4L673.6,545.2L674.5,548.9L674.5,549.7L673.5,551.1L673.5,553.7L674.9,555.4L675.1,556.8L677,559.4L678,559.6L678.6,560.3L680.3,567.1L682,568.1L683.2,569.8L684.1,570.2L685.4,573L685.2,573.2L687,575L686.9,575.8L687.5,577.1L689.9,580.4L690.8,580.9L691,582L691.9,582.4L693.5,584L693.6,585.2L696.4,586.3L698.4,588.3L699.5,590.4L700.6,594L700,594L699.7,593.3L697.7,592.2L697.3,593L698.6,595.4L699.6,595.1L699,596.9L700.1,597.8L700.6,599L699.6,597.8L699.6,598.5L699.2,597.9L698.7,597.9L697.9,599L698.6,599.4L699.8,601.6L699.6,602.7L701.7,604.1L701.9,605.5L702.8,606.7L703.4,609.4L707.5,612.8L707.5,614.5L707.1,614.9L707.4,617L709.2,619.1L709.2,620.6L710.6,623.4L711.7,624.3L712.1,625.7L711.9,626.6L710.9,626.2L710.6,626.9L710.7,629.9L710.1,631.9L710.4,632.9L712.1,633.9L713.6,636.7L714.9,640.7L717,644.5L721.5,655.3L40,655.3L40,270.8L41.7,270.2L42.1,270.9L44.1,271.2L45,272L47.6,273.2L45.9,273.8L45.8,273.3L45,273.2L43.6,273.8L43.8,274.4L44.5,274.7L45.9,274.6L46.4,275.2L46.3,276L46.1,275.5L44.9,276.7L45.1,278.3L46.2,280.1L48.8,282.1L49.7,283.4L48.4,285.4L47.6,285.1L47.8,284.6L47.1,284.5L45.9,285L45.3,286.2L46.9,286.6L47.6,285.6L49,287.9L49.9,288.5L52.2,288.5L54.5,287.6L55.1,287.1L55.9,283.9L56.4,283.5L58.3,283.5L60.5,282.8L64.9,279.1L65.3,277.6L67.3,277.2L68.4,276.4L69.4,276.5L69.7,277.1L69.4,278.6L70.5,280.7L70.6,282.1L71.8,283.7L71.3,284.8L68.6,286.5L64.6,293.3L63.1,297.1L62.4,298L60.1,298.6L57.4,300.1L56.4,299.8L55.4,300.6L54.5,301.9L53.4,306L53.4,310.7L54.5,314.1L56.3,316.1L57,318.4L60,321L60.8,321.3L62.5,320.7L63,321L63.6,321.4L63.1,322.6L63.6,323.7L67.2,325.3L68.3,325.1L69.1,325.8L69.5,326.6L68.5,327L68.4,328.7L69.1,329.9L70.4,330.3L69.6,331L69.4,331.9L69.2,336.2L70.8,338.5L72.5,339.5L72.5,340.2L71.1,340.6L68.4,344.5L68.5,346.5L65.7,349.1L65.7,352L64,353.4L64.4,354.6L62.7,355.5L60.1,359.1L57.5,360.2L56.7,363.2L56.3,363.6L53,364.3L52.1,364.9L50.6,367.4L48.1,367.7L46.9,369.1L43.5,370.7L42.9,371.4L40.9,375.5L40.1,376L40.6,379.3L42,383.7L44.6,387.4L49.2,392L53.7,393.9L57.8,393L60.1,391.8L60.7,393L60.6,395.4L59.4,396.3L58.9,397.3L59.7,399L60.7,399.7L65.5,397.6L66.1,396.4L65.4,394.9L66.2,394.2L66.9,394.5L67.6,394L69.2,394.9L71.1,397.5L71.3,399.3L70.5,400.5L71.1,402.6L70.9,403.6L71.7,403.3L72.8,404.7L76.2,406.2L75.8,406.4L71.7,405.4L71.4,406.4L73,408.8L74.9,408.5L78.4,409.7L79.7,409.7L80.1,409.4L80,408.9L77.9,407.2L80.4,409L83.7,410.3L84.5,411.5L85.8,412.3L90.2,413.2L89.6,412.6L87.8,412L87.4,411.4L91.7,413.2L98.3,417.4L99.4,418.7L104.5,421.4L116.4,422.9L119.1,422.7L126.1,420.6L128.6,419L131.2,418.8L133.8,419.3L140,422.7L147.2,423L151.8,424.7L157.2,425.8L165.1,432.4L169.7,433.2L172.4,434.8L177.5,435L185.1,436.7L187.9,439.3L188.4,441.3L190.2,444.2L190.1,451.4L193.7,461.6L197.4,467.4L201.3,471.1L209.2,474.9L218,476.6L228.4,476.7L234.4,478.1L240.5,480.3L246.2,481.4L249.1,483.3L257.7,486.6L259.8,487L261.9,489.3L264.5,489.9L269.8,492.2L273.1,496.1L279.9,501.5L282.3,504.1L285.9,505.7L291.1,509.1L296.1,509.5L298.7,509.2L301.5,508.3L306.9,505L309.3,504.1L313,501.1L317.6,495.2L319.5,491.9L321,490.5L324.1,482.8L324.1,477L322.9,473.8L320.6,470.8L318.7,465.2L318.5,462.3L317.7,458.4L318.5,452.7L318.3,451.6L322,444.1L327.3,438.6L329.1,436.2L330.8,435.3L335.8,431.1L342.3,428.2L346.2,425.5L349.4,423.8L350.7,423.5L356,423.8L359.6,423.1L365,418.4L368.1,417.7L370,418.9L372.6,419.3L378.7,418.6L379.3,417.9L380.2,417.8L381.8,419.8L385.5,420L390.4,423.1L392.2,423.4L398.8,425.4L402,427L403.4,427L407,428.3L407.4,429.2L406.6,430.4L406.9,432.5L408.2,433.8L407.6,436.7L407,436.4L407.1,435.8L406.6,435.3L406.3,438.8L409.5,440.2L410.8,442.6L412,443.2L412.7,444.6L412.4,442.5L414.1,442.8L415.3,443.7L422.8,443.9L427.5,445.1L432,447L431.2,447.9L434.5,450L447.3,450.5L450.8,449.1L452.5,449L454.2,449.9L459.5,451.3L460.5,451.9L460.9,453L460.6,455.1L460.8,455.8L463.3,459.1L464.4,461.7L464.5,464.4L465.3,466.2L467.4,466.5L468.5,467L471.3,467.2L483.1,463.3L487.1,463.3L498.1,466.5L507.1,468.1L509.1,468L512.2,469.4L515,469L517.5,470.4L522.3,471.8L522.9,471.3L525.2,471.4L527,475.7L528.5,476.7L532.5,477.8L533.1,477.4L534.5,478.2L536.1,477.9L539.9,476.1L541.1,480.5L542,481L548.3,481.2L549.7,482L552.9,482.3L554.7,481.5L555.9,481.5L557.4,482.6L558.8,482.6L566.7,485.8L567.4,487.4L572.8,490.3L578.1,489.9L586.1,485.8L593.4,480.2L593.9,479.3L594.7,479.5L595.5,479.1L596.8,477.9L596.5,477.5L596.2,477.7L596.6,477.1L597.1,477.4L601.9,473L601.9,473.9L602.7,474.6L604.8,475.1L603.9,476.3L604.6,477L605.8,476.2L605.6,476.6L606.2,476.8L607.1,475.8L607.3,476L607.5,475.3L608.1,476.2L608.5,475.1L608.1,474.9L606.7,475.3L607.1,474.9L605,474.9L607,474L608.8,472.4L609.8,470L609.6,467.3L610.2,468.6L611.2,469.2L610.4,468.6L610,467.6L610.1,467L612.8,468.5L615,468.5L627.3,464.3L624.3,465.6L617.6,469.5L615.6,469.9L615.2,470.9L615.8,471L618.3,470.8L618.9,470L620.6,471.1L621.2,469.9L622.4,469.1L623.4,469.7L624.5,469.5L625,470L626.3,469.2L626.3,468.7L627.5,469.4L628.8,466.6L630,466.7L630.8,467.5L631.3,467.5L631.6,467.1L631.1,466.9L631.7,466.7L631.1,465.9L628.6,464.4L627.4,464.4L630.7,463.6L634.2,464.5L643.6,469.2L649,467.9L652.5,466.1L654.5,466.6L656.7,470.7L661.6,474.3L660.7,474.1L658,472.3L658.5,472.5L658.3,472.1L655.9,470.9L655.1,469.4L655.8,469.4L653.7,466.5L652.9,466.2L652.6,466.6L652.2,466.4L652.2,466.9L651.8,466.6L651.7,467.3L652.2,467.3L652.6,469.7L652.1,469L651.5,468.7L651.6,468.5L651.1,469.2L652,469.2L651.9,469.9L652.6,470.1L651.3,470.4L651.7,470.9L651.2,471.8L652,472.3L650.3,472.1L650.3,473.7L649.5,474.1L649.5,474.6L650,475L650.3,474.9L650.1,474.6L651,474.9L651.4,475.8L652.8,476.7L653.4,475.8L653.4,476.7L653,477L653.4,477L653.2,477.4L653.9,477.2L653.9,478L655.6,476.5L656.3,476.7L655.9,476.7L656.3,477.2L656.6,476.7L657,477L657,479.2L656.5,480L657.4,479.5L658,480.7L657.2,481.4L658.3,481.5L658.3,482.1L659,482.5L659.7,482.1L659,481.9L658.7,481.2L660.1,481.6L659.9,481.2L660.5,481.2L660.3,480.7L660.7,480.5L661,480.7L661.1,480.1L662.6,480.8L663.6,480.3L663.9,479.7L663.3,478.6L664.1,478.6L664.3,477.1L663.6,475.6L663.9,475.3L662,474.9L661.8,474.3L665.3,475.1L665.6,476.1L666.9,476.6L669.5,479.3L670.3,480.7L672.8,482.3L677.3,481.6L682,479L679.5,480.9L674.7,482.6L676,482.6L675.6,483L676.5,483L677,482.6L677.5,482.8L681,480.9L681.7,481.2L681.4,481.6L681.7,481.5L682.3,481.2L681.6,480.9L682,480.5L683.1,481.4L683.3,482.1L682.9,482.1L684.3,482.4L684.7,481.9L684.3,481.4L685.6,480.9L685.8,479.8L684.8,480.5L684.8,480.9L682.7,480.7L683.6,480.6L684.8,478.8L687.1,477.6L687.5,477.9L686.8,478.1L688.4,480.3L687.3,480.7L688.1,481.7L687.7,482.8L690.2,482.3L689.5,481.9L691.3,480.9L691.6,481.4L692,481.2L692.5,481.6L692.5,481L692.9,480.9L691.8,480.7L694.8,480.5L694.6,479.8L695.4,479.7L695.4,479L698,480L702.1,480.4L707.9,478.8L713.3,476.5L718.2,473.2L724.4,466.1L729.1,458.2L731.9,451.8L732.8,448.1L733.2,447.9L735.5,440.6L737.5,430.7L738.8,421.7L739.2,421.4L740.8,421.9L741.9,420.5L742.2,419.2L741.8,418.6L742.2,416L742.6,413.7L743,413.2L742.8,412.5L744.1,411.2L744.7,410.2L744.5,410L744.9,410.2L745.7,408.3L745.9,407.3L745.3,406.4L746.3,405.3L747.6,400.4L749.8,398.4L751.2,394L751,393.8L751.5,393.4L751.8,392L752.3,391.7L753.4,388.5L753.5,386.2L753.2,385.2L753.6,384.8L754.5,385.1L756,384.9L757.2,382.1L757.9,381.8L757.6,380.3L758.1,377.7L757.7,376.6L757.6,374.9L758.1,374.2L758.6,371.2L759.3,370.6L759.8,371L761,368.5L762.6,367.6L763.1,367L762.6,365.9L765.3,365.5L767.5,363.4L767.6,360.6L766.1,356.5L766,354.8L764.3,350.2L764.7,349.5L764.5,348.4L765.2,346.9L764.9,343.9L766.9,340.9L765.6,337.8L766,336.6L765.7,333.4L762.9,330.2L761.6,330.4L761.8,329.1L760.6,328.4L760.8,327.7L760.3,327.9L761.8,326.7L762,326.1L761.6,324.8L762.4,324.3L763.5,322.1L763.4,320.6L762.4,318.6L764.4,318.5L764.8,317.4L767.3,313.4L767.3,312.8L766.6,310.5L763.9,306.2L763.5,305.1L762.4,303.8L762.1,302.5L763.1,301.1L764,300.8L764.5,299.9L765.4,299.2L765.7,298.1L767.7,297.1L769.3,295.1L773.3,292.8L774.1,291L773.3,286L771.6,283.7L769.6,282.1L768.6,281.8L767.6,282.2L762.6,287L759.2,287.3L758.1,287.7L757.2,288.8L757.3,288.4L757,288.1L756,289.5L756.2,290L756.6,289.5L757.3,289.7L757.4,289.1L757.8,289.5L757.8,288.6L758.1,288.4L758.6,289.1L759.9,288.8L757.4,290.2L757,291.3L759.5,289.3L758.4,290.4L757.5,292.9L755.6,293.4L753.7,292.5L753.4,293L754.9,293.5L752.5,293.1L749.7,295L749,294.2L739.5,288.8L737.2,288.8L737.4,288.1L735.9,286.7L733.6,285.6L731.4,285.6L727.5,287.2L726.9,288.1L723.6,290.8L719.7,293.4L717,297.3L714.2,299.3L714.2,302.2L712,303.1L710.9,306.2L710.4,306.2L710.6,305.3L710.1,303.5L708.4,302.7L706.7,304.3L707.1,304.6L706.4,305.6L704.8,306.2L703.7,307.2L703.3,308.8L702.1,306.9L701.4,307.1L699.5,309.1L698.9,309L699.2,308.5L696.8,308L694.8,308.8L693.2,308.3L692.6,308.9L689.9,309.2L688.4,308.8L687.8,308.9L686.5,310.6L682.3,309.9L680.2,311L678.5,312.5L674.8,311.9L671.9,310.2L670.4,309.9L666.2,307.4L664.9,305.6L664,305.1L663.7,303.6L661.4,301.2L660.9,299.7L659.7,298.5L658.9,296.8L656.5,294.8L653.4,294.2L652.1,293.3L650.9,293.3L649.5,292.6L648.6,291.5L647.7,291.5L645.6,290.5L644.7,289.7L638.6,287.2L638.5,286.4L637.5,285.8L626.3,284.2L621.7,284.4L619.2,283L616.8,284.8L616,286.7L615.8,289.5L616.1,290.2L615.6,291.6L616.1,293.3L616.3,293.1L616,295.4L614.6,296.7L613.3,299.7L613.3,300.3L614,301L613.8,301.5L614.6,301.8L613.4,302.9L613.1,303.6L613.7,303.6L612,305.7L611.2,306.4L611.2,305L610.8,304.1L610.1,304.3L607.1,302.9L604.4,303.2L604.1,304.8L603.7,304.1L603.5,305L603.1,304.8L603.1,305.2L601.3,304.6L601,304.8L601.6,305L599.7,306L597.7,306L595.2,307.1L595.4,307.4L594.5,307.6L595,307.8L593.8,308.7L593.3,308.8L593.7,308L593.1,308.3L592.1,307.9L590.8,309.2L590.7,308.5L589.8,308.1L589.5,307.4L589.8,307.6L590,307.1L588.3,307.1L589.5,306.6L585.8,306.2L584.1,305.2L583.8,305.6L583.5,304.3L582.7,304.4L581.8,305.5L578.6,302.4L576.9,301.8L576.4,301.3L576.1,301.5L576.1,300.6L574.7,300.1L575.7,299.4L575.5,297.9L574.7,297.3L575.5,296.6L575.2,294.6L574.7,294.7L574.4,294.3L572.4,294.7L573,294.3L572.6,293.3L573.2,292.1L573.6,292.5L574.7,291.4L574.5,292L575.3,291.8L574.7,290.7L570.8,288.6L570.3,287.8L568.9,289.1L569.1,289.5L568.2,289.8L568.1,290.6L567.8,290.7L568.4,291.9L568.9,291.3L568.8,290.5L569.2,291L568.2,292.4L568.3,292.7L567.2,292.9L566.9,292.2L567.6,291.6L566.5,291.1L566.1,291.2L565.9,290.3L564.9,289.6L563.6,289.4L562.6,289.8L562.2,288.9L561.5,289.5L560.9,288.4L561.3,287.2L560.9,286.3L561.1,285.6L560.7,286.3L560.1,285.4L559.3,285.3L558.7,285.7L558.8,286.5L557.6,286L558,285.6L556.8,285.1L556.7,284.4L557.1,284.3L556.7,283.3L556.2,283.9L554.5,284.2L554.9,284.9L555.9,285.1L555.1,286.5L552.8,285.6L552.8,286.3L551.8,286.2L551.8,285.6L552.8,285.1L551.6,284.3L551.2,284.5L550.6,285.7L551.1,286.5L551,287.2L552.1,288.1L552.3,288.8L551.5,288.5L550.9,289.1L550.5,288.8L550.3,289.3L550.5,289.5L548.5,290.5L547.1,292.8L546.5,293.3L545.7,293.1L545,294.1L544.4,293.8L544.1,294.2L543.4,294.1L542.9,292.9L545,292.9L546.5,291.4L546.1,291L545.3,291.6L545.7,290.7L545.1,289.8L544.8,290.5L543.4,290.4L543.1,289.9L545.2,288.8L546.5,288.6L546.4,289.2L546.8,289.2L547.3,288.9L547.3,288.4L546.3,287.9L547.1,287L547.7,287.7L547.5,286.4L547,286L545.3,287.4L545,287L543.1,287.9L542.7,287.5L541.7,288.1L541.5,287.7L540.9,288.1L540.4,287.7L540,288.1L538.6,287.4L536.1,287.6L535.2,288.6L534.8,291L533.4,290.3L531.7,290.4L531.5,290L529.2,291.2L528.6,290.7L527.3,290.7L527,290.1L526.2,290L526.3,289.6L526,289.1L527.6,289.2L528.6,287.7L533.1,287.3L533.5,286L534.1,285.9L535.4,286.6L537.3,286.7L538.4,285.9L541.1,285.7L542.3,286.3L543.8,286.2L544.8,286.7L545.6,285.8L545.1,285.2L544.2,285.1L544.7,284.8L544.2,284.2L545.6,283.7L544.6,282.3L545.2,282.3L544.8,281.8L545.7,281.8L545.2,281.4L548.4,281.6L548.6,282.3L548.4,281.1L549.2,281.4L549.9,280.2L549.6,279.9L549.9,279.3L550.8,279.7L550.9,279L553.2,278L552.5,277.5L547.5,278L547,278.2L547.1,278.8L543.6,278.1L542.7,278.5L540.8,278.4L538.1,279L537.9,279.5L535.3,279.1L533.8,279.9L531.9,279.4L531.7,280.2L530.8,279.6L529.2,279.5L528.3,278.3L527.4,278.7L527.1,278.3L526.7,279.5L526.5,278.3L525.2,278.8L525.1,279.8L524.4,280.2L524.6,280.7L523.4,280.5L522.4,277.2L522.7,276.4L524.2,275.5L523.3,275.5L523.1,275L525,275L525,273.8L525.5,274.1L525.6,274.8L526.7,274.1L526.8,274.8L528.3,275L528.1,275.2L528.9,276.2L531.8,275L532.1,274.6L531.5,274.8L530.8,272.7L532.5,272.5L532.1,273.2L533.1,272.4L532.5,272.1L532.5,271.4L533.1,270.8L533.2,269.9L532.6,269.6L531.5,269.9L530.4,271.4L530,271.3L530.5,270.9L530.2,270.1L529,270.7L529.8,268.1L529.2,267.5L529.1,268.5L528.5,268.8L527.1,268.2L526.9,267.5L527.1,266.8L528.3,265.9L527.4,265.2L526.4,265.4L525.7,266.6L525,266.6L525.2,267.3L522.9,267.8L521.3,267.1L521.8,266.4L521.7,265.7L522.3,265.4L522.2,263L521.4,262.9L521,263.3L521.3,261.7L521.1,260.7L521.2,260.3L521.6,260.6L521.9,260L521.8,258.9L519.8,257.7L516.3,256.5L516.6,255.8L519.6,255.7L522,254.9L523,253.8L523.3,251.8L522.6,250.4L522.7,249.7L523.3,249L523.3,247.9L523.7,247.5L522.7,245.5L520,245.6L518,244.4L517.6,243.5L515.3,242.9L513,243.2L512.4,243.9L511.6,242.5L511.4,240.6L510.2,239.2L509.7,239.4L509.7,238L509.3,237.7L505.8,238.1L505.4,240.3L505.1,240.1L505.1,241.1L504.7,241.5L503.9,240.1L503.9,240.9L503.6,240.9L502.7,240.1L502.5,238.9L501.8,239.1L499.7,237.5L499.7,238.2L498.9,237.4L498.9,236.1L498.5,237.1L497.9,237.3L494.6,235.7L494.7,235L495.4,235.3L496,234.2L496.6,234L496.1,233.4L496.2,232.4L496.6,232.9L497,232.2L497.1,233L496.8,233.6L498,234.3L498.8,234.2L498.7,233.3L499.7,233.6L501.3,232.5L501.4,231.9L500.6,230.5L501.7,231.2L502.4,230.3L500.3,228.9L498.9,229.6L499.3,228.4L498.3,226.8L497.8,223.4L498,222.5L499.3,221.9L501,222.1L502.2,222.8L505.7,227.3L506,229.1L504.5,229.3L504.9,229.6L504.5,230.8L505.4,231.2L506.8,234.6L507.6,234L507,233.3L506.8,231.9L507.7,230.4L508.3,230.3L509.5,232.6L510,232.4L510.3,232.8L513.9,232.2L516.4,231L518.5,231.3L520.6,229.6L516.6,229.3L514.2,230.2L514.5,229.8L513.1,228.2L511.8,227.6L510.8,226.5L512.9,227.7L511.4,226.3L511.8,224.7L511.4,224.3L510.2,224.7L510.4,224.2L509.1,224L509.3,223.3L508.1,222.8L509.1,222.3L508.1,220.4L510.9,219.3L513.3,220L513.1,219.5L513.8,219L514.1,219.3L514.2,218.8L514.1,218.1L513.9,218.4L513.1,217.2L514.3,216.7L514.4,217.4L514.9,217.5L515.2,217.1L514.8,216.2L516.4,215.3L516.9,215.7L517.8,214.8L517.2,214.6L517.6,213.7L517.2,213L515.5,213.7L514.9,213L514.2,213.3L513.9,213L512.3,213.9L510.6,212.6L510.4,211L510.8,210.2L510.2,210.2L512.4,208.8L512.7,208.5L512.5,207.8L511.1,205.8L508.7,204.2L508.1,201.9L505.1,201.5L506.1,200.1L506.3,200.4L505.8,200.8L506.8,201.2L506.8,200.4L510.8,197.3L510.4,197L510.4,196.1L511.8,195.9L512.2,195.6L511.9,195.1L512.3,194.8L514,194.2L514.5,192.5L514.3,191.3L513,190.9L511.3,191.9L510.6,191.4L500.8,193.1L498.1,194.5L496,194.2L495,195L494.5,194.7L491.2,195.2L490.1,194.7L490,193.9L491.1,190.5L492.1,189.5L492.4,188.7L492.6,186.8L491.8,185.1L492.3,182.7L491.8,182.3L492.4,180.2L492.3,178.7L493.3,176.7L493.5,176.4L495,176.9L496.7,176.1L498.1,174.6L498.3,173.2L499,173L499.4,170.1L502,169.4L508.6,162.9L513.1,162.8L515.8,163.4L516.4,163.3L518.7,161.3L522,161.4L524,160.7L525.2,162.6L524.2,162.8L525.5,164.1L528.7,165.7L530.7,166.2L533.2,165.4L535.3,166L535.9,165.6L538.1,165.8L538.8,164.9L540.7,163.5L538.8,163.1L538.2,163.3L538,162.6L537.2,161.9L537,161.1L536.3,161L535.2,159.8L536.2,158.7L537,158.8L537.3,158.4L537.9,159.1L538.5,158.9L543.2,159.5L545,160.5L544.5,161.3L541.3,163.1L541.4,163.9L542.5,164.2L544.8,164L547.1,163.2L553.7,162.9L557.6,163.1L556.8,163.8L559.3,163.4L561.9,164.2L565.6,163L568.8,163.5L570.3,164.2L573.4,164.2L574.5,162.1L576.2,161.9L575.1,160.8L573.8,160.3L572.3,160.3L571.1,161L565.7,158.9L566.2,157.8L569.1,156.5L571.2,154.9L579.9,154L583,152.5L583.7,153.3L586,151.8L586.8,152.1L587.7,153.1L593.1,152L596.3,151.8L597.9,152.2L598.3,151.6L598,150.8L593.7,151.1L592.7,150.4L590.7,149.9L584,150.2L582.6,150.9L581.2,149.7L581.6,149.5L581.5,149.1L580.8,148.5L579.1,149L579.7,148.1L580.3,148.1L579.4,147L576.1,145.5L574.3,143.9L572.8,143.2L573,142.9L572.2,141.5L573.7,139.9L574.5,137.7L573.9,137.3L575.6,135.3L576.8,134.6L577.8,134.7L578.5,134.3L596.8,137.5L603.8,137.6L606.1,136.8L607.9,135.2L610.4,136.3L619.6,138.4L620.9,139.4L623.3,139.8L630.5,139.6L631.5,139.2L634.5,139.4L637.1,138L639,136.1L639.7,133L639.1,132.4L639.3,131.7L641.2,131.4L642,130.5L646.5,128.9L652.4,125.3L657.1,122.9L660.5,121.6L663.4,117.9L665.9,117.6L666.7,116.7L667.2,117.2L671,114.8L672.2,114.8L673.2,113.8L675,114L677.2,113.2L681.9,112.4L693.1,107.7L699.1,108L701.2,108.6L708.5,109.2L712.1,109L721.3,110.1L725.5,109.2L727.7,110L731.4,110.2L734.4,109.7L736.9,108.1L738.4,106L738.5,105L740.1,105.5L740.7,105.2L741.4,106.1L741.2,106.6L742.3,107.4L743.7,107.6L744.8,106.9L746.1,107.6L743.9,107.7L743.3,108.1L742.6,110.8L743.5,112.6L745.9,114.8L745.5,115L746.3,116.5L748.3,118.1L751.2,118.9L753.6,120.5L756.1,121L765,118.4L766.8,117.4L766,118.3L765.6,120.5L766.2,118.9L767.2,117.6L769.1,119L769.3,118.6L771.4,121.1L771.8,122.1L771.4,125.6L771.8,126.8L773.7,128.7L774.6,130.3L777.3,131.5L777.6,132.7L779.1,133.8L780.6,134.3L782.5,133.6L784.2,132L785.4,129.7L789.2,130L791.4,130.6L795.6,132.5L796.4,133.2L796.9,134.2L797.1,136.3L799.8,137.5L804.4,137.7L805.3,138.5L807.1,138.8L810.7,141.3L812.3,141.3L813,140.8L813.9,139.1L815.3,137.7L816,138.6L817.9,138.4L818,140.5L820.3,142L821.1,143.2L822.2,142.7L829.6,144.5L831.5,144.2L833.3,145.4L839.1,145L840.6,143.8L841.8,143.4L843,144.3L844.1,144.1L845.9,142.5L848.5,141.9L849.4,141.3L853.2,141.1L855.4,140.6L856.7,139.8L859.6,140.8L864,138.7L865.8,139.1L869.6,142.3L870.8,142.5L872.4,142L874.4,142.5L877.1,144.1L880,143.2L882.4,145.1L883.5,145.3L885.5,144.7L888.4,143.6L893,140.8L894,141.2L895.6,141.1L897.5,139.7L899.6,139.2L901.2,137.1L903.2,135.8L905.8,136L909.2,134.6L911.4,132.8L913.3,132.4L916,130.5L918.9,129.6L919.9,128.6L920.3,127.1L922.2,125.6L925.2,120.9L926.9,119.9L928.7,116.9L928.8,115.9L929.7,114.5L929.7,111.5L929.2,108.1L926.6,104.5L926.2,101.1L924.7,96.4L923.5,95L922,86.5L920.8,84L918.7,82.5L916.6,82.1L914.3,80.9L912.2,81.2L910.9,79.4L910.3,77.3L908.6,74.5L906.9,75L906.1,74.8L904,72L899.1,71L896.6,71.3L894.6,69.8L891.2,68.6L890.1,68.5L889.4,69.4L887.5,66.8L887.6,65.7L886.1,63.3L883.7,62.5L882.4,61.5L878.1,60.3L876.3,57.2L872.1,54.8L871.3,53.2L869.3,52.1L864.8,47.8L861.2,43.5L856.4,40L562.8,40L560.4,46.8L560,53.5L560.9,55.8L559.7,58.7L557.7,60.3L557.2,61.6L555,60L553,59.5L550.8,60.2L548.4,60.2L546.6,61.7L544.5,66.2L541.3,67.3L542.5,68.4L541.5,72L540.7,73.1L541.3,76.2L541.3,79L540.8,79.4L541.1,81.6L541,84.1L536.5,83.9L536.1,85.3L536.7,85.8L533.6,86.9L534.2,89.3L531.1,89L530.3,89.5L529.4,91.9L528.9,91.6L528.7,92.5L529,92.8L529,93.7L529.2,92.6L530.4,93.5L531.2,92.6L531.7,93L532,92.7L532.7,93L534,92.8L533.8,93L534.3,94.1L535.4,93.7L535.6,94.2L536.1,94.2L535.5,94.7L536.1,95.1L535.8,96L536.3,96.8L537.9,96.8L537.7,97.4L538.1,97.7L537,98.9L537.2,99.5L540,102.2L539.8,102.7L540.6,103.1L541.3,104.3L543.6,105.9L543.6,106.6L544.2,107.1L544,107.3L544.5,108.1L544.4,109L544.9,111.3L545.3,111.9L545,112.3L543.4,112.2L543.1,113.5L543.2,114.4L546.5,119.4L546.1,120L546.7,121.1L549,123.5L550.5,124.8L554.8,127.3L569.4,133.4L572.7,134.2L573.3,133.8L573.9,133.9L575.1,134.5L574.4,136L573.1,136.9L574,138.1L573.2,140.3L571.7,141.5L571.6,142.5L570.5,142.2L567,143.9L565.6,143.3L561.5,143.6L560.7,143.3L560.9,142.2L560.1,141.7L560.3,141L559.5,139.8L558.8,139.6L559.8,141.3L559.7,142.1L559.2,142.9L558.3,142.8L556.2,141.1L551.4,140.1L550.6,139.6L548.6,139.6L544.4,141.2L543.6,141.7L542.9,143.4L542.4,143.5L540.1,143.3L538.8,142.5L536.7,142.1L530.7,142.9L529.8,143.4L529.2,144.5L528.5,147.3L527.9,148.3L525.3,150.7L524.1,152.7L521,155.1L519.2,155.7L517.3,155.8L515.7,157.5L513.5,157.9L511,159.5L509.3,159.8L507.1,161.2L506.9,162.2L505.7,163.1L504.8,164.9L503.1,166.3L501.9,166.8L499.9,168.9L497.7,169.9L498.5,171.5L494.8,174.3L493,175L492.4,174.8L492.5,174.4L495.3,170.1L495.6,168.9L495.5,167.9L494.1,166.6L494.5,166.1L493.9,165.7L494.1,165.4L497,164.2L497.4,163.6L500.1,161.7L501.8,161.1L503.8,159.7L505.4,159.1L506.8,159.3L508.5,157.5L509.2,157.8L510.1,157.5L511.2,156.1L510.1,154.1L505.1,154.9L502.2,156.3L500.5,155.6L499.2,156.1L498.4,155.7L496.5,156.2L490.6,156L490.2,155.8L489.5,154.1L489.6,152.9L488.9,151.6L489.3,151.3L488.8,149.5L488.2,149.2L489.5,148.8L489.5,148.3L488.3,148.5L488,148.1L488,148.8L485.7,147.6L480.5,147.6L476.9,146.8L475.1,147L473.6,146.1L471.8,145.7L468.4,144.2L467.5,145L465.1,144.5L463.8,143.8L463.9,143.1L464.8,142.7L463.9,142.2L461.1,142.3L461.1,142.9L459.8,143.6L460,144.3L459.7,144.5L457,145.3L454.5,147.6L453.4,147.1L451.8,147.6L450.6,146.7L449.6,147.4L447.9,144.2L446.1,143.9L445,144.6L444.4,144.3L443,144.7L440.8,146.7L441.3,147.5L440.6,148L441.5,148.3L435.1,151.8L431.6,151.7L427.6,150L425.1,150.6L423.9,151.5L423.4,153L423.6,153.7L425.2,154.7L426.2,156.6L427.7,157.6L428.9,157.5L429.6,158.3L429.4,158.8L427.5,159L427,159.4L427.1,161L428.3,162.6L431,163.8L432.1,163.5L432.3,163L431.8,161.4L432.3,161.4L434.4,164.2L437,164.7L437.7,165.9L438.5,165.9L442.7,170.6L443,171.5L442.1,172.2L440.4,172.3L440,171.2L438.7,170.3L436.7,167.3L432.5,166.1L430.2,164.2L427.3,164L425.3,164.8L424.5,164.5L423.4,166.2L424.1,168L425.2,168.8L425.8,169.8L429.1,170.9L431.8,172.7L431.4,173.6L432.1,174.4L431.6,174.9L431.6,175.3L432.3,175.2L432.5,176.2L431.7,177.1L432,177.6L431.2,177.8L431.8,178.3L429.8,178.2L429.8,177.6L429.2,177.7L429.3,177.1L427.7,175.9L427.1,176L427.1,176.4L426,174.4L426.2,173.5L422.9,169.3L422,168.7L419.1,168.4L416.3,167.2L414.2,167.8L413.5,168.9L413.5,169.6L414.2,171.6L415.2,171.8L418,175.3L420.9,176.8L422.8,177.2L423.5,178.8L424.9,179.1L423.7,179.7L421.3,179.3L417.2,177.7L414.1,178.1L414.7,176.6L413.9,174.8L412.6,173.2L413.1,170.7L412.9,169.5L412.4,168.7L408.2,167.3L404.8,165.6L404.3,164.7L403,163.8L400.9,163.5L401.1,163L400.9,162.4L399,159.6L402.4,159L403.5,157.8L403.4,157.2L402.4,156.7L402.6,156L401.5,154.7L399.9,154.9L400.1,155.5L399.8,156.4L398.8,157.2L397.8,157L397.2,157.3L396.8,158.3L397,158.9L396.6,158.6L396.6,159.1L396.2,158.9L395.9,159.2L394.9,158.7L394.4,159.5L394.9,159.8L394.5,159.9L394.2,160.6L392.9,160.3L392.2,160.7L392.9,161.6L393,162.6L394.5,164.1L393.4,166.1L391.5,171L392,174.9L392.8,176.2L395.8,178L396.5,180.6L398.4,182.2L399.8,183.9L400.4,186.4L402.3,191.1L406.7,193.8L407.5,195.4L411.6,199.9L413.6,204.8L412.4,205.7L409.9,206.4L410.4,206.9L409.7,207.3L408.7,207.3L407.2,207.9L405.5,207.6L406.3,205.9L407.2,205.5L406.8,207.3L408.8,206.3L409.1,205.5L409.6,205.7L410.1,204.8L408.9,202.9L408.7,201.7L407.8,200.8L406.7,200.2L404.6,200.1L403.9,198.7L402.2,198.6L402.4,199.1L402,199.8L402.4,200.5L399.6,201L399.1,201.6L399.1,203.3L399.9,205.5L400.7,204.8L400.6,204.4L401.1,205L401.3,204.8L401.8,206.6L402.2,207.1L402.2,206.4L402.9,206.8L403.9,208.5L403.9,209.2L402.8,210L403,210.6L405.2,209.5L406,209.7L404.7,210.6L403.6,212.5L402.2,212.7L402.4,213.2L401.2,213.7L399.7,213.4L399.4,214.4L398.2,215.1L396.5,215.3L396.1,214.7L395.3,215.1L393.4,213.8L391.1,215.1L390.7,214.8L390.7,215.8L392,215.5L391.5,216.1L392.3,216.7L392.8,216.2L392.6,216.7L394,216.7L395.7,216L397.8,218.4L399.2,218.2L400.3,219.3L401.6,218.6L402.5,219.2L405.2,219.6L406.9,223.3L409.1,222.7L409.5,222.3L408.7,221.9L409.2,221.6L412.6,222.8L413.3,223.5L413.3,224.4L412.2,225.3L412,226.1L412.6,225.7L414.7,226.8L413.5,227.2L413.4,227.9L418.5,228.3L419.2,227.6L420.8,228.9L420.1,229.6L420.7,229.8L420.6,230.5L421.5,230.9L422.8,232.9L423.9,233.6L425.9,233.3L430.6,235.1L434,238.4L433.9,239.2L434.3,239.4L433.8,239.8L433.7,240.6L433.5,240.1L433.1,240.2L431.7,240.9L432.3,243.7L432.9,244.8L432.3,246.2L432.3,247.6L433,247.7L433.3,248.3L432.3,248.8L433.9,249.7L433.9,250.7L433.5,251.1L434.2,251.5L434.4,252.4L434.3,253.5L433.7,254.2L434,254.4L433.7,254.7L434,255.7L432.9,257L430.6,256.1L430.4,254.4L429.8,254.6L429.3,252.5L428.9,252.8L428.2,251.7L426.9,250.9L426.6,251.6L425.8,251.8L425.4,251.4L425.5,250.6L423.5,247.2L421.6,247.4L422,246.7L421.5,246.9L419.5,245.8L420.7,244.4L420.3,243.5L416.6,244.4L415.1,245.5L416,245.8L415.5,246L410.4,246L406.6,248.1L404.4,247.6L403.9,249.1L404.4,250.3L406.1,250.5L407.2,250.2L409.1,251.6L409.1,252.8L407.6,253.3L407.4,253.9L408.9,254.7L408.6,256L408.9,257.2L408.5,257.2L408.7,258.3L413.4,261L414.1,260.6L414.1,259.6L412.7,258.2L413.7,257.6L415.2,257.5L415.5,257.9L415.3,258.8L414.5,260.3L415.8,261.2L415.1,261.7L417.4,262.5L418.7,263.6L418.7,264.3L416.5,265.1L411.4,265.6L411.4,265.9L410.4,266.1L410.4,266.5L411.2,266.6L411,267.1L411.8,267.3L409.2,267.6L409.7,268.9L408.7,269L408,268.7L408.5,268.2L407.5,268.2L407.2,267.8L407.8,268L407.4,267.5L406,267.1L406,265.6L406.7,266L407.2,264.7L408,265.2L407.7,263.9L406.7,263.5L405.3,263.6L405.7,263.3L405.3,262.6L404.1,263.6L403.5,261.9L401.8,260.8L401.3,260.8L401.8,261.2L400.8,261L399.9,261.7L398.9,261L399.1,260.5L398.5,260.1L397.8,258.9L396.3,259.9L396.5,262.4L397.4,264.5L397.2,265.7L398.9,267.5L398.9,268.5L401.4,272.6L401.1,274.7L401.3,275.1L402.8,275L402.8,276L403.5,276.4L403,276.4L404,278.1L404.3,279.7L403.7,279.7L404.1,280.4L404.3,280.2L404.3,281.4L405.3,283.7L406.6,285.5L406.3,286.5L407.2,286.7L406.5,288.4L405.5,287.9L404.9,288.7L404.9,289.8L405.7,289.8L405,290.4L405,291.3L406.3,293.7L408.3,295L408,295.2L408.1,295.8L407.8,296.1L409.7,297.9L409.5,298.7L408.5,298.2L407.9,298.6L406.7,298.3L405.9,297.3L406,296.6L405.4,295.6L403.2,295.7L402,293.1L400.5,291.9L400.9,291.5L400.8,291.1L399.4,290L398.8,290.5L398.9,288.9L398,286.3L395.2,285.8L393.4,286L392.2,286.7L392.2,288.1L391.3,288.8L390.7,290L391.4,290.3L391.5,291.2L390.9,290.5L390.5,290.7L390.3,291.3L390.9,291.8L390.7,292.5L390.4,292.8L390.1,292.1L389.6,292.7L389.6,295.5L390.3,297.5L389.8,298.6L390.1,299.6L389.7,300.1L389.2,298L387.4,296.8L386.7,297L385.9,296L386.3,294.7L386.7,294.9L386.9,294.4L386.5,293.5L386.9,292.9L386.3,292.9L386.4,291.5L386.9,291.4L386.3,291L386.9,289.3L386,289.5L384.6,287L384.2,285.4L382.2,282.8L381.6,282.5L380.9,283L379.9,282.1L380.3,278.5L377.3,278.1L374.4,279.5L373.8,283.9L374.2,284.9L374,285.3L375.2,286.3L374.5,286.5L374.2,287.3L372.7,288.6L371,285.8L369.4,286.3L368.2,285.3L367.8,285.5L367.3,284.4L367.3,283L367.9,281.2L367.3,280.5L366.7,280.7L367.1,280.2L366.5,280.7L366.3,279.5L364.2,276.6L364,275.3L364.1,272.7L364.6,271.7L367.1,269.6L367.5,268.5L366.9,265.7L365,262.2L363.4,260.1L360.4,258.1L359.3,256.9L357.6,256.4L357.1,256.5L356.7,257.5L356.4,256.3L356.7,254.4L356,252.4L351.2,250.4L351,249.3L351.7,246.9L352.6,247.5L353.8,246.9L355.8,245.1L356.2,245.2L357.1,244.4L356.9,243.9L356,244.6L358.3,241L358.5,237.5L359.4,238.7L359.2,237.7L361.3,238.4L362.7,239.4L365.4,239.8L367.6,238.1L369.4,235L371.8,233.4L374.8,233.6L376.6,234.4L377.4,235.7L378.5,236.1L379.2,235.9L380,236.6L380.5,237.8L382.1,238.7L384.8,239.2L385.3,239L387.6,240.4L390.3,240.7L395.1,242.8L397.8,245.1L398.3,245.9L400.3,247.2L402.5,246.9L403.3,245.8L400.8,243.9L399.9,243.9L400.5,243.4L402.4,242.2L405.9,243.1L408.8,242.4L410.1,241.6L408.9,240.6L408.9,240.1L410.3,239.6L407.6,239.2L408.2,238.7L407.4,238L405.9,238.8L404.9,238.7L405.5,238.5L404.7,237.7L402.7,237.4L401.8,238L402.6,237.9L403.1,238.5L401.4,238.5L401.1,236.8L400.7,237.3L400.5,236.8L398.6,237.3L397.4,236.6L398.4,235.4L395.5,234.3L394.9,233.3L395.2,232.7L394.1,231.8L393.6,232.4L394.1,232.7L393.1,232.7L392.4,233.6L393,234L392.8,234.7L391.8,235.1L390.7,233.8L391.1,233.6L390.7,232.8L389.1,230.7L387.2,229.6L387.4,230.9L386.5,231.7L387.2,232.2L386.7,233.4L382.3,232.8L381.3,234L379.7,232.3L374.8,231L372.6,232.2L371.3,231.5L369.9,232.7L369.4,233.9L368.1,232.9L364.8,233.1L362.5,235L360,233.8L360.5,233.7L361.7,234.5L361.7,233.6L361.3,233.3L361.7,232.9L361.2,232.9L361.3,232.4L359.8,232.6L360,232L359.7,231.6L358.6,231.5L358.1,229.1L357,228.1L356.6,228.2L356.7,228.5L357.9,230.3L357.5,230.3L357.4,231.6L356.2,232.2L356.2,232.6L355.5,232.5L355.6,233L355,233.6L354,233.8L353.3,233.4L353.1,233.8L353.6,234L352.9,234.7L352.4,234.7L351.9,233.6L350.4,233.3L351,233L351,232.4L350.6,232.6L351,231.9L351.2,232.3L351.9,231.5L351.4,231.1L350.7,231.3L350.3,230.7L350.4,230L351,230.5L351.4,230L351,230.3L351,228.6L350.2,228.4L350.8,228.2L350.4,227.9L350.7,226.9L348.9,227.6L348.5,226.4L348.7,224.3L347.4,222.1L345.6,221.6L344.5,217.9L343.7,217.8L342.7,219L342.5,218.7L341.7,219.1L340.4,217.4L341,215.8L342.5,215.4L341.2,214.1L341.6,212.3L341.9,213.1L342.9,213.6L344.1,212.3L344.4,212.7L344.3,213.4L345.3,213.4L345.8,212.5L348.8,213.2L348.7,214.4L350.4,215.5L350.9,214L353,215.1L352.7,214L351.9,212.9L352.1,211.9L352.5,211.8L352.5,211L350.4,208.8L350.2,209.7L349.5,209.6L349,210.2L349.6,210.6L346.7,209.7L346.2,209L346.6,208.5L345.8,208.7L345.2,208.3L344.3,209.1L344.8,209.7L343.7,209.6L344.1,209.5L344,208.9L343.7,208.3L343.1,208.5L343.5,207.8L343,207L341.8,207.8L342.2,208.1L342,209.2L341.2,210.2L340.8,209.9L340.9,210.4L343.3,212.1L341.5,211.7L340.6,212.6L339.7,211L340,210.4L339.2,208.4L336.7,206.7L333.4,203.2L333.5,201.2L331.7,201.2L331,200.8L330.2,201.1L329.1,200.5L328.2,199.5L328.1,198.4L327.6,197.7L326.6,197.3L326.8,196.8L326,195.9L327.5,195.6L326,194L327.1,194.1L327.4,193.5L326.2,193.1L326.2,193.5L325.1,192.7L323.7,192.8L324.1,191.4L324.5,191.6L324.9,191.2L324.9,190.5L325.3,190.3L325.1,189.6L322.5,187.9L320.3,187.2L319.7,187.4L319.6,186.4L320.1,185.3L319.5,185L320.4,182.4L320.3,181.3L317.4,179.9L318.4,178.8L316.2,175.2L314.6,174.9L313.8,174.1L313.6,174.6L312.5,173L310.3,172.2L305.3,169.4L302.7,166.6L301.6,163.9L300.1,162.4L300.9,161.8L301.7,162L303,163.5L303.9,165.4L305.3,164.8L305.4,161.2L303.7,159.9L302.8,158.2L303.2,158.9L304.1,159.4L304.5,159.3L304.7,157.8L303.6,156.8L303,157L302.8,157.9L300.5,154.4L302.1,152.5L302.3,149.3L303.4,148.7L303,147.8L303.6,147L302.7,145.7L304.3,144.3L304,144.7L304.2,145.5L304,146.9L304.3,146.4L304.3,146.9L306.7,145.3L306.7,144.4L305.9,142.5L305.8,143.3L304.7,145.1L304.5,144.8L305.2,144L305.3,142.7L304.3,141.8L304.8,138.9L304.4,137.6L305,137.4L305.1,136.1L306.3,134.4L306.4,133.1L305.7,132.1L303.7,131.5L303.6,129.5L303,128.4L303.4,128.9L304,128.8L304.5,128.4L304.3,127.5L305.7,126.6L306.5,125L306.4,124.4L305.1,123.6L304.3,122.5L306.8,122.8L307.8,122.5L308.4,121.4L308.7,121.9L309.2,121.9L308.8,120.7L308.6,120.9L307.6,120L308.2,119L308,116.2L308.5,116.4L308.8,115.2L308.6,114.6L304.1,112.9L302.2,113.4L300.7,112L296.8,110.5L296.5,109.4L295.9,108.9L295.9,106.9L294.3,105.6L294.1,105.1L294.3,104.6L293.4,103.6L292.3,103.6L291.1,101.9L289.6,100.8L288.8,98.6L287.9,98.4L287.3,98.9L286.9,98.4L285.8,99.1L284,97.2L283.4,96.3L283.5,95.6L283,95.2L282.4,95.1L282.3,95.8L281.3,95.8L280,94.9L280.2,94.7L279.3,93.9L279.8,93.4L283.6,94.9L283.8,94L283.1,92.7L283.2,91.9L282.3,92.9L278.1,92.8L278.6,93.4L278.4,94.4L278.8,94.7L278.3,94.5L277.3,93.3L275.6,92.6L275.5,92.1L270.7,89.3L270.2,88.6L270.1,87.2L266.1,86.1L265.6,85.5L266.2,85.5L265.2,84.4L264.8,84.7L261.2,82.7L260.7,82.1L261,81.3L258.6,80.6L257.8,81.1L256.2,80.1L257.3,81.7L257,82L257,81.3L256.4,81L248.3,78.5L248.4,77.6L247.7,77.2L245.8,76.9L242,74.8L238.7,74.7L236.8,74.1L236.5,73.7L236.8,73.1L236,72.4L238.1,73.4L242.7,73.4L246.9,74.9L248.7,76.2L248.9,76.9L250.2,77.3L250.7,76.9L251.7,77.2L256.8,79.7L255.7,78.7L255.8,78L255,78.3L251.6,76.4L253.3,76.9L252.9,76.5L250,75.1L249.2,73.7L250.1,73.1L248.1,73.6L248.9,73.1L248.1,72.9L247.9,72L247.3,72.4L244.9,69.8L239.2,66.9L234.2,61.4L232.7,60.3L229.1,59.8L225.5,58.8L222.7,56.7L219,56.7L221.3,55.8L220.8,55.5L217.4,55.3L214.7,56.2L211.3,56.3L212.6,57L212.8,57.4L211.1,57.4L211.2,57.8L208.4,57L206.9,57L206.9,56.6L207.5,56.4L207.6,55.6L206.9,55.8L205.9,55.1L206.4,54.8L205.7,54.6L206.1,54.1L205.7,53.9L205.7,52.7L207.1,52.3L205.3,52L206.7,51.9L206.1,51.3L206.6,50.6L206.3,50.4L206.1,51.1L202.2,48.4L199.8,48.1L199.1,46.9L197.3,46L199,46.2L196.1,44.8L194.3,43L192.7,42.5L190.7,40L114.9,40L118.5,41.1L122,42.9L131.1,50.1L137.3,53.3L138.5,52.6L140.2,54.6L141.2,55L141.5,55.5L141.3,56L147.4,69.8L148.2,73.9L150.5,81.1L154.1,87.9L158.2,92.3L162.8,95.6L164,97.4L167.7,100.7L171.9,102.4L172.7,105.5L176.4,107.3L179.8,108L181.3,109.4L184.6,110.8L187.9,110.8L192.5,111.5L197.1,110.8L201.7,111.1L208.8,110.3L211.9,111.1L212.5,112L213,112L213.4,115.5L212.1,116.9L211,117.3L208.8,119.3L205.9,120.7L205.2,121.5L205.1,124.2L206.1,126.2L208.6,127.9L210.4,128.4L220.9,133.6L222.6,134L224.6,135.5L237.6,139.7L243.7,143.2L245.7,145.5L247.6,146.6L249.3,148.4L257,151.2L259.6,153L262.8,153.8L262.7,154.6L264.2,154.5L264.4,155.4L265.2,156.1L265,157.7L267.4,159.5L270.7,161.1L276.2,167.6L278.5,172L278.5,173.2L277.8,173.8L277.5,174.8L276.2,176L275.5,177.5L275,179.6L275.2,180.9L274.9,183L274.3,183.7L273.7,183.6L271.9,182.4L269.9,182.2L266,179.8L263.9,176.9L264.6,176.4L264.4,175.5L263.1,174.8L264.1,174.2L264.3,173.4L263.9,172.6L261.9,170.7L261.7,169L261.2,168.2L261.6,168L260.2,167L250.3,166.3L248.3,165.4L247.2,165.4L241.6,162.4L242.8,161.6L242.9,161.1L242.4,160.5L244.3,160.6L245.1,159.7L243.3,160L243.5,159.8L242.9,159.5L241.3,160.3L240.4,159.2L237.4,159L235.3,159.9L233.5,161.5L229.9,166.4L228.5,169.9L224.9,173.8L224.8,175.6L225.7,177.9L223.2,180.6L221.8,183.4L221.7,184.4L222.8,186.2L222.4,187.3L223.3,188.3L225.5,189.5L229.9,190L231.7,192L234.7,193.8L236.3,194.3L238.5,196.5L240.4,197L239.4,199.3L239.2,201.2L240.1,203.7L239.5,207.8L240.4,209.5L241.8,209.9L240.8,210.7L240.8,212.3L238.9,214.4L238.7,213.7L236.6,214.1L235.5,213.1L234.2,213L228.4,215L224.4,217.8L223,221.2L223.4,221.5L224.2,227L223.7,230.9L221.1,233.2L217.5,234.8L212.7,240.2L211.5,244.9L210.2,247.1L208,247.9L206.4,247.4L201.3,247.6L199.2,246.7L197.8,244.8L197.9,244.1L198.4,243.6L197.5,241.9L198.1,240.2L197.7,237.6L198.2,236.9L202,235.6L202.8,234.8L203.2,233.1L205.3,228.9L205.6,226.3L205.2,225.3L203.4,223.6L203.6,222.5L208.1,220.3L211.4,220.4L212.3,220.1L213.6,218.6L214,217.3L214.2,214.4L213.7,213.2L212.3,212.4L211.9,211.8L210.3,208.3L209,199.1L207.9,195.9L206.1,193.4L204.3,191.6L203.4,188.6L202.6,187.1L202.1,183.7L201.6,182.5L201.9,181.2L201.7,180.4L200.4,178L197.7,174.8L197.5,174.1L195,174.1L191.5,176.9L189.6,176.6L188.8,175.6L187.3,175.7L187.8,175.1L187.4,174.2L183.6,170.9L181.3,171L180.1,169.5L177.5,168.5L177.4,167.9L178.3,166.2L178.1,165.3L179.8,164.5L180,163.1L176.9,157.1L175.4,155.1L173.9,153.8L173.1,153.6L171.3,154.5L169.5,154.5L167.2,155.8L165.6,155.1L163.8,155.7L161.6,157.2L161.2,156.7L161.5,155.4L162.8,155L164.4,153.3L165.3,153L165.3,151.8L164.4,150.9L163,150.7L160.2,148.1L158.3,148.3L157.7,149.3L154.3,148.3L154.3,149.9L153.3,149.7L153.5,148.1L152.6,145.2L151,142.7L149.7,141.7L149.5,140.3L147.8,137.5L144.2,133.9L140.6,133.9L139.8,134.4L140.1,135.4L139.2,135.5L138.4,134.7L138,135L137.4,134.4L133.1,132.5L132,132.4L129.2,133L127.2,134L126.5,134.8L125.2,134.8L123.4,131.2L121,128.9L119.6,128.2L117,128.1L114.3,126.6L113.8,127.2L108.5,121L105.2,118.2L102.7,117.4L102,116.3L101.8,114.3L100.8,112.5L97.1,109.6L96.6,108.6L95.5,108.4L93.7,107.1L91.2,107.2L89,104L88.6,102.6L86.4,98.8L83.1,96.4L78.5,94.5L77.3,94.7L75.3,94L73.9,94L73.1,95.8L72.4,95.8L71,95L70.4,94.1L70.8,93.2L72.6,93.3L73.3,91.9L73.2,90.6L72.4,89.1L71.6,89.3L70.7,87.6L70.3,87.4L70.2,86.8L68.2,85.5L67.7,84.1L66.4,83L60.5,80.9L61.4,79.8L61.4,78.4L61.8,77.8L61.4,77L57.7,75.6L55.1,75.9L55.3,76.4L54.5,76.7L54,76.2L53.4,74.5L54.5,73.4L55.1,71.5L55.3,69.2L54.8,65.7L52.2,60.9L48.9,57.3L48.3,54.7L47,45.2L45.1,41.5L43.3,40ZM1160,40L1086.3,40L1088.1,44.2L1088.9,44.8L1088.4,46.2L1089.5,46L1090.1,47.8L1088.4,48.9L1088.2,49.7L1088.7,50.6L1088,51.3L1087,53.5L1086.2,53L1086.6,55L1087.3,55.6L1087.3,56.7L1087.9,57L1088.6,56.5L1089,55.3L1089.4,52.2L1090.2,50.7L1090.1,49.7L1090.9,47.7L1091.2,44.6L1092.7,43.4L1094.3,43.5L1095.6,44.3L1094,45.8L1092.8,48L1089.7,58.4L1089.5,59.8L1089.8,64.1L1090.3,64.2L1091,63.2L1092,62.8L1092.4,63.9L1091.8,65L1089.6,66.9L1089.5,69.8L1088.7,70.8L1088.9,73.5L1090.8,75.5L1092.5,76.1L1093.4,77.4L1095.5,78.7L1095.9,79.9L1096,84.5L1096.4,85.7L1097.1,86.6L1100.3,88.4L1103.8,94L1106.7,96.4L1110.2,102.4L1112.5,104.9L1113.1,107L1114.8,110.5L1115.7,111.3L1119.5,112.6L1120.2,113.7L1122.4,115.2L1125.8,119.2L1126.3,120.6L1128.2,122.5L1129.3,124.7L1130.4,125.3L1131.8,127.5L1133.2,128.4L1135.8,133.1L1136.3,136.9L1137,138.1L1137.5,140.6L1142.7,147.1L1144.6,148.3L1145.2,148.2L1147.1,149.8L1146.3,152.8L1147.1,154.4L1148.5,155.4L1150.3,155.6L1152.3,156.9L1154.9,157.4L1158.3,156.6L1160,156.7L1160,165.6L1158.5,164.6L1157,164.1L1156.5,164.4L1155.5,165.2L1155.7,166L1154.9,166.7L1147.7,169.7L1145.8,171.5L1145.9,173.5L1144.4,174L1144.1,174.6L1144.6,176L1145.5,177.1L1144.2,178.2L1143.9,178.9L1144.4,181.1L1143.7,182.1L1143.8,183.2L1143.1,184.2L1143.1,185.1L1143.9,186.7L1142.8,187.3L1140.9,189.7L1140,193.1L1140.3,194.6L1143.5,197.7L1143.1,199.1L1143.4,199.8L1142.3,198.9L1143.4,201L1140.6,199.1L1139.6,199.4L1138.9,200.3L1138.6,201.4L1138.7,205.1L1137.7,209.7L1137.4,210.3L1134.2,212.2L1133.4,211.6L1133.6,210.7L1135.5,209.9L1136.1,208.1L1135.3,207.1L1133.9,207.1L1133.7,205L1133.2,204.6L1131.1,204.6L1130.5,206.5L1130.2,206.7L1130.2,209.1L1130.7,209.8L1129.8,213.1L1128.3,215.6L1127.3,215.3L1127.4,217.1L1128.2,219.2L1128.5,236.8L1129,238.1L1129.4,242.2L1130.6,246.2L1130.4,248.4L1131.6,250.5L1131.5,251.4L1132.4,254L1135.7,258L1142.3,261.7L1144.4,262.4L1155.1,263.8L1158.1,263.1L1159.1,263.6L1158.2,263.8L1160,264.5ZM429.2,329.6L433,329.7L433.6,328.7L434.6,328.7L434.3,327.5L435.2,327.1L436.5,327.2L437.1,327.6L437.7,329.1L437.3,329.9L436,330.3L434.3,330L433.9,330.3L434,330.6L437.2,332.2L439.1,331.3L439.4,335L441.5,335.7L444,335L445,335.2L452.2,333L455.5,333.8L457.1,333.1L458.8,333.8L459.2,333.1L461.5,333.8L461.5,335.5L462.2,335.9L465.5,335.7L466.2,336.2L470.5,335.9L471.9,337.4L472.7,337.6L478.5,335.7L481.5,336.2L480.3,337.6L480.4,338.6L480.7,338.7L480.7,338.2L481,337.9L481.3,338.7L480.5,339.2L480.3,341.1L480,341.4L480.4,343.1L482.3,343.7L483.2,343.5L483.7,342.5L484.7,342L485.1,341.3L487.4,341L489.7,339.7L491.3,340.3L491,340.6L491.6,340.9L493,340.6L495.3,337.9L496.2,337.8L496.2,336.9L497,336.9L496.7,337.5L495.4,338.7L496.4,341.3L497,340.9L496,342.5L496.2,343L496,343.6L494.7,346.3L491.7,347.7L490.9,347.7L490.3,347L488.6,346.9L487.6,346.3L482.6,347.4L476.8,347.2L474.2,348.2L469.7,347.9L466.2,349.2L464.2,349.1L463,349.8L452.7,350L453.1,349.1L453.3,346.7L452.8,345L451.8,344.3L447.8,344L446,342.4L445,342.5L443.3,341.7L443.3,341.1L440.2,341.4L438.1,341.1L437.7,340.6L434.4,340.6L433.4,341.1L431.7,339.7L429.3,339.7L427.1,339L425.9,339.6L423.9,339.5L423.1,339.9L422.7,339.5L420.4,339.4L420.2,338.7L419.5,338.5L418.5,337.6L418.5,337.1L419.5,336.6L419.1,334.8L420.1,332.8L419.7,332.2L420.2,330.5L419.9,330.3L419.9,329.6L420.9,326.7L421.4,329.7L422.5,330.5L423.7,330.4L424.4,329.5L424.5,328.7L423.9,325.5L425,324.2L425.8,324.7L425.5,325.7L425.8,327.9L426.4,329L429.2,329.6ZM715.9,333.4L713.2,336.9L711.2,336.7L710.6,337L709.5,338.7L709.2,342L713.4,346.5L714.8,348.8L713,348.6L712.3,348.1L710.8,348.3L709.5,348.7L708.1,349.8L706.5,348.6L705.3,348.3L703,348.8L702.1,350L701.7,352.7L701,353.7L699.2,354L698.4,355L696.3,355.7L695.6,355.9L695.2,355.4L695.2,356.3L691.3,357.9L686.4,358.1L684.7,359.6L684.3,360.5L684.3,361.4L684.8,362.4L682.3,362.4L682.5,361.5L681.6,359.4L679.4,358.9L675.8,359.8L668.9,357.1L667.6,356.1L666.6,352.8L665.2,351.5L665.3,350.2L664.7,349.3L664.6,347.6L663.7,346L663.7,344.5L664,344.3L666.4,346.2L668.6,345.6L671.5,341.5L672.1,341.8L674.2,341.2L676.9,341.5L679.2,342.6L680.2,342.3L681.6,340.8L682,339.7L682.2,336.1L681.8,334L686,335.4L687.9,335.3L696,336.4L702.5,335.4L705.9,333.4L707.4,333.6L713,331.5L715.7,330.2L717.1,328.7L721,327.6L728.6,324L728,325.6L727.2,325.9L721.9,329.8L715.9,333.4ZM198,236.1L196,237.3L195.7,238.3L196.1,238.2L194,242.2L191,245.9L187.5,251.5L186,253.2L185.8,253.7L186.2,255.1L185.7,255.8L184.6,259.9L182.7,262.4L182.7,267.5L183.1,268.3L186.1,269.5L187.1,270.5L187.3,271.3L186.9,270.9L186.2,271.7L186.2,271.2L185.8,270.9L185.4,271.1L185.6,271.5L185.1,272.2L186.1,274L186.9,273.8L186.4,274.2L186.9,275.2L188.5,275.8L188.5,277.1L188.1,276.9L187.9,277.6L189,277.9L189.3,278.9L188.7,278.7L187.5,279.3L187.5,280.2L184.9,281.2L184.4,281.9L182.6,286.1L183.8,290.4L182.6,291.1L180.2,289.4L179.5,289.9L176.7,288.5L173.9,289.5L172.8,288.9L171.2,288.6L170.5,287.7L168.3,286.7L165.6,286.3L163,281.2L159.8,277.8L155.5,275.4L149,275.8L147.3,274.5L144,273.4L139.9,269.9L136.7,269.1L131.8,265.8L131.1,264.5L128.9,262.6L125.4,262.2L124.7,262.4L124,261L122.4,259.8L120.1,259.6L114.5,260L112.2,257L110.2,256.5L108,252L108,251.6L109,251.1L109.4,249.2L109,248.1L110.1,245.2L109.8,244.4L112.1,242.6L113,243L114.2,242L114.5,241.1L115.7,241.3L116.3,240.8L116.2,239.1L116.5,238.5L116.7,238.9L117.3,238.9L118.9,242.4L121.2,244.1L122.4,244L125.7,242.2L126,241.8L125.5,240.2L126.5,239.4L126.3,239.1L126.8,238.6L129.8,239.1L130.4,238.8L130.7,238L132.9,237.5L133.2,238.2L134.4,239.2L135,241.6L138.4,241.3L139.2,241.9L139.3,243.2L142.2,245.1L143.5,245.3L143.9,245.5L143.7,245.8L146.1,246L152.6,243.4L154.3,244.3L156.2,244.1L159.6,244.6L162.8,244.1L164.1,243.4L165,243.8L166.3,243.6L169.8,242.3L172.5,239.7L174.3,239.6L177.4,238.7L178.5,238.9L179.2,239.6L181.4,239.9L182.5,240.7L185,239.7L186.7,236.8L186.6,236L186.9,237.7L188.2,238L191.2,237.1L194.8,234.7L198.2,235.7L198,236.1ZM1109.3,519.1L1113.6,525.7L1114.1,526.9L1113.3,529.5L1111.5,531.7L1110.4,532.2L1109.2,532.1L1108.5,531.2L1106.4,526.5L1105.3,525.4L1107.2,524L1107.3,522.9L1106.4,522.6L1106.7,522.1L1108.4,522.7L1108.5,521.9L1109.5,521.1L1108.1,520.8L1107.9,519.6L1107.4,519.6L1107.4,519.2L1108.5,518.7L1109.3,519.1ZM550.7,298.7L550.3,299.2L550.6,300.7L549.9,301.2L549.7,302.4L548.9,303.5L548.6,305.3L547.7,307.1L546.9,307.1L546.4,307.8L545.7,309.5L546.7,309.9L546.1,310.9L546.5,311.6L545.1,311.1L543.8,311.3L542.1,312.6L539.2,316.4L537.9,317.2L536.5,316.4L535.9,315.1L537.1,312.2L537.2,310.6L535.8,309.1L535.9,308.5L535.2,308L537.6,306.7L538.5,304.2L539.4,303.8L541.2,301.8L547.3,298.8L549.2,298.9L550,297.9L550.7,298.7ZM336,228.9L337.6,233.3L336.8,234.7L338,236.4L339.1,235.4L338.9,235.9L339.4,236L339.9,237.3L341,238.4L342.3,240.6L342.6,241.7L342.3,242.8L340.1,242.8L339.1,241.7L337.2,241L336.3,241.1L335.8,242L334.3,241.3L333.1,238.5L334.3,238.9L332.5,235.6L332.2,235.6L332,236.1L332.2,237.8L331.9,239.1L330.6,239.9L330.5,239.3L329.7,238.9L329.5,238.2L330,237.3L329.8,236.7L331,234.8L331.2,232.6L331.4,233.3L332,232.7L333.4,234.5L334.8,233.6L335.1,232.3L334.9,231.7L335.4,231.9L335.1,228.9L336,228.9ZM489.9,225.2L491,226.5L491.4,226.1L491.2,225.8L491.7,225.7L492.6,226.5L492,228.2L491.4,228.4L492,228.9L491.8,229.1L492.3,229.1L491.9,230.8L492.6,234.7L491.2,235.4L490.9,236.1L491.1,237.5L489.1,238.2L488.3,239.7L487,239.2L485.5,237.3L484.9,237.5L484.9,236.6L484.2,236.7L484.8,235.5L487,234.7L487.3,233.6L487.8,233.3L487.7,232.1L487.6,231.7L487.4,231.9L486.6,231.2L486.8,230.5L486.4,229.6L484.5,228.6L483.3,226.5L483.8,225.3L487.9,224.4L489.9,225.2ZM66,385.4L69.7,388.6L67.2,390.7L66.8,392.1L66.8,391L66.4,391.1L64.9,394.1L64.4,393.6L64.6,392.5L63.1,391.1L62.7,390.9L61.9,391.9L61.4,392.1L60.7,391.5L60.4,390.1L60.4,389.2L60.9,388.2L60.6,385.8L61.6,385.4L65.1,385.9L66,385.4ZM522.4,320L521.9,321.1L522.1,322.8L520.5,325.4L520.4,326.5L522.2,328.8L521.7,329.6L522.6,330.8L522.5,331.5L521.1,331.6L520.5,332.3L520.4,333.1L520.8,332.9L520.6,333.2L519.8,333.8L520,333.3L519,332.9L518.6,332.2L519,331.7L518.9,331.3L519.3,331.1L519.2,328.8L518.1,327.8L517.9,327L519.2,325.7L519.6,323.9L520.3,323.1L520.4,320.2L521.2,320.2L522.2,319.3L522.5,319.5L522.4,320ZM167.9,318.7L167.7,319.3L167.3,319.1L166.9,319.5L166.8,320.2L162.7,318.8L161.6,317.5L161.5,315.3L161,314.4L162.6,313.7L161.8,314.4L164,314.6L166.2,315.9L166.4,316.8L167.3,317.2L167.9,318.7ZM405.5,306.5L405.5,308.5L404.4,308.4L403.7,308.8L403.7,308.3L402,307.4L401.4,306.4L401.7,303.7L401.2,301.9L402.4,300.1L404.3,302.9L406.6,304.8L406.9,305.3L405.9,305.7L405.5,306.5ZM500.9,293.1L500.9,293.7L500.5,293.3L498.5,293.9L497.6,296L496.4,295.9L495.4,294.7L495.5,293.1L496.3,293.1L497.6,294L498.2,293.3L499.3,293.3L498.1,291.6L499,291.7L500.9,293.1ZM444.6,287.7L445.3,287.9L446.9,287.2L447.3,287.7L447.1,290.2L445.6,290.7L442.2,290.8L441.2,291.2L441.2,289.5L441.5,289.1L441.2,288.8L441.9,287.7L443.1,288.3L443.4,289.3L443.9,289.5L444.9,289.5L445.1,289L444.6,288.4L444,288.4L443.4,287.4L443.8,287.1L444.6,287.7ZM521.3,285.7L519.6,287.4L517.3,287L515.8,287.7L515.3,288.1L515.6,288.8L515,289.3L515.2,290.2L514.2,289.8L513.7,289L513.9,287.3L514.3,287.4L514.8,286.7L515.6,287.2L517.7,284.8L520.6,283L523.9,282.4L524.2,283L525.5,283.3L526,283.9L521.3,285.7ZM490.1,282.8L488.2,283L485.8,284.7L484.6,286.3L481.2,287.1L480.7,286.3L483.7,285.8L484.2,284.9L483.8,285L483.7,284.4L487.2,282.8L486.6,282.1L488,281.4L490.1,282.8ZM467.8,275L467.4,276.7L467.8,276.9L467.5,277.1L467.8,277.6L466.5,279.1L465.7,279.6L464.3,279.7L462.9,278.8L463.2,277.1L464.4,276.2L463.8,276.1L465,274.8L466.7,274.1L466.3,274.7L467.3,275L467.6,274.6L467.5,274.1L467.8,274.1L468.2,274.1L467.8,275ZM476.7,275.9L476.3,278.7L475.5,280.3L472.6,282.1L471.8,280.4L470.9,279.7L470.7,278.1L469.6,276.6L473.3,273.7L473.9,272.8L474.9,272.4L476.4,273.8L476.7,275.9ZM469.7,261.9L470.6,263.3L471.1,262.4L473,263.2L473,263.7L471.4,264.3L471.3,265L468.6,265.2L469.1,263.4L468.6,263.1L468.8,262.6L469.7,261.9ZM462.3,257L463.4,257L464.2,257.7L464.6,257.2L466.9,257.9L466.7,258.2L467.3,259.1L466.4,260.9L464.8,260.9L463.2,260.1L461.3,258.2L459.7,257.2L459.5,256.4L459.9,256L461.6,256.1L461.9,256.3L461.7,256.8L462.3,257ZM442.5,255.8L443.3,256.9L443.1,257.9L440.8,260.9L440.2,261.3L439.7,261.1L439.8,258L440.1,257.2L441.2,256.5L441.3,256.3L441,256.1L441.3,255.9L442.5,255.8ZM496.9,257.6L494,260L491.6,260.3L489.6,261.5L487.3,261.6L487.4,260.5L490.1,257.5L493.5,257.7L495.1,257L495.9,256.2L498.1,255.8L496.9,257.6ZM514.7,253.4L515.1,253.7L515.2,253.3L514.5,252.3L515.3,252.5L515.8,252.1L515.8,252.5L517.9,252.8L516.9,253.5L517.3,254.4L517.8,254.4L517.7,255.1L516,255.1L513.5,256.1L512.1,257.3L510,257.1L509.3,255.7L507.8,254.9L504.8,256.1L504.3,254.8L504.2,254L504.7,253.2L506,252.9L506.4,252.2L509.6,251.4L511.6,251.6L514.7,253.4ZM341.1,250.1L341.8,250.4L342.6,250.2L344.8,251.4L345.7,253.1L347.6,254.3L347.9,255.4L346.7,254.5L345,254.2L343.6,255.3L343.7,256.9L342.6,256.8L337.3,251.1L337.6,250L337.3,249.7L339.2,247.5L339.9,247.6L341.1,250.1ZM455.8,248L459,248.6L458.4,250.4L459.6,251.4L458.8,252.8L459.8,253L459.8,253.5L458.8,255.1L459,255.8L457.6,254.7L457,253L456.2,252.8L454.9,251.1L454.4,251.4L454.2,250.4L452.7,248.8L452.1,249.2L452.1,248.6L451.1,247.4L451.5,247.3L451.3,246.6L451.7,246L453.8,245.1L454.2,245.3L454.3,245.9L455.2,246.4L455.8,248ZM339.6,221.8L340.2,220.9L340,223.7L339.5,223.3L339.7,224L339.3,223.7L339.1,224.4L338.2,224.3L338.1,225.1L337.7,225L337.7,224.4L337.2,224.3L336.9,223.7L335.2,225.6L335.7,221.5L336.9,218.4L338.1,216.8L339.2,216L340.1,217L340.4,219.9L339.6,221.8ZM448.1,214.8L450.6,216.8L451.1,218.3L450.4,218.8L449.5,218.8L448.7,218L448,218.5L447.9,219L446.9,217.9L448.1,217.4L447.6,216.2L447.3,216.5L446.8,216L446.1,216.2L445.4,215.1L444.2,215.1L444.3,214.4L444.9,214L444.9,212L445.8,211.6L448.1,213.2L448.1,214.8ZM318,183.8L318.2,184.1L318.5,183.9L318.5,185L318.1,185.6L315.6,186.8L315.5,187.7L316,188.1L315.7,188.6L318,189.5L317.9,190.3L317.2,190.3L318.2,194.7L320.9,195.9L322.3,195.6L323.3,198L323,198.4L320,197.3L318.7,196.3L317.5,196.2L318,195.6L316.6,195.4L315.9,194.2L315.2,191.3L313,189.7L312.1,187.9L311.1,187.7L310.8,186.2L310.3,186.5L310.2,185.6L309.5,185.3L310.7,183.8L314.4,183.5L315.9,182.7L318,183.8ZM472.2,176L472.6,177.1L471.2,178L470.8,178.6L470.9,179.5L469.7,179.9L470.3,180.2L469.5,181L470,181.3L469.6,181.7L470.4,183L469.8,184L468.3,183.3L468.1,182.5L466.7,181.6L467.8,180.5L467,179.5L465.5,180.4L466.3,180.6L465.4,181L465,182L465.3,181.8L465.7,182.2L466.2,183.2L466,183.4L464,183L464.8,181.9L464.6,181.5L463.8,182.3L463.4,181.6L461.3,182.3L461.9,181.6L461.3,181.3L461.3,180.9L461.7,180.6L461.5,180.2L461.9,179.4L460.9,176.9L463.7,176.4L464.4,176.9L466.3,176.4L467.3,177L468,178.3L469.7,177.4L470.7,176L472.6,175.5L472.2,176ZM487,171.4L488.3,171L488.3,171.7L487.7,172L481.4,173.4L478.6,172.4L479.2,171.2L481.3,169.7L485.9,168.4L487.2,169.2L487,171.4ZM478.8,160.1L479.5,161L479.5,161.9L476.5,163.1L474.9,162.5L472.4,160.3L475.3,159.1L478.8,160.1ZM453.9,155.5L451.1,156.4L450,157.2L448.4,155.5L446.5,154.9L446.3,153.9L446.9,152.2L447.9,150.9L450,149.2L452.5,149.9L452.8,150.8L453.9,151.4L453.3,152L454,152.5L454,153.2L453.4,153.8L453.9,155.5ZM52.1,80.5L52,81.4L50.9,82.3L51.9,83L52.1,83.7L51.6,84.1L50.7,83.7L49.5,82.2L49.1,82.2L48.8,83L48.5,82.4L47.4,82.9L46.9,82.5L46.6,83.2L44.1,83.2L43,82.5L42.8,81.6L43.1,81L44.4,80.4L46.8,80.9L47.4,80.9L47.3,80.6L47.6,80.1L49.2,80.1L49,80.6L49.7,80.8L51.5,78.5L52.4,79.5L52.1,80.5ZM229.5,75.1L232.6,75.5L236.9,74.8L239.7,75.2L241.6,76.9L239,77.1L235.2,76.7L231.8,77.6L225.9,76.4L227.8,75.5L225.7,74.8L226.3,74.4L228.2,74.5L229.5,75.1ZM223.8,66.4L224.3,66.8L226.5,66.8L227.4,67.7L227.2,68L228.4,68.6L232.2,68.4L233.1,68.9L240.3,69.4L241.4,69.8L226.8,69.9L223.7,69.3L218.4,67.5L221.9,66.7L223.5,67.8L224.3,67.7L222.6,66.4L223.8,66.4ZM230.6,62.5L231.2,62.3L233,63.5L232.4,64.3L230.8,65L223.8,64.9L222,64.5L219.4,62.8L219.9,63.1L220.3,62.8L220.2,62.3L220.7,62.1L219.9,60.7L220.5,60.7L221.8,61.1L227.3,61.3L230.7,62.1L230.3,62.3L230.6,62.5ZM182.1,40L186.1,43L186.2,43.4L185.5,43.6L183.7,42.7L185.5,43.9L185.4,44.4L183.4,43L181,40ZM727.2,587L726.1,587.7L726.8,588.1L728.1,587.9L729.4,589.6L726.5,589.3L725.9,588.4L725.7,587L726.5,586.3L727.2,587ZM75.9,355.7L76.5,356.4L76.3,356.9L71.7,359.1L71.4,358.6L72.8,356.9L72.8,355.9L73.5,356.4L74.2,356.3L74.1,355.1L75.1,353.6L76.5,354.3L75.5,355L75.9,355.7ZM159.8,312.9L157.6,312.6L157.2,312.3L157.1,311.2L159.2,310.9L159.9,311.1L161.4,312.3L159.8,312.9ZM473.7,300.5L473,301.7L472.5,302L470.1,301.3L471.5,301L472.2,300.1L471.7,298.7L471.8,298L470.3,297.3L471.7,297.4L472.7,298.1L473.4,298.9L473.7,300.5ZM539,292.1L538.8,292.6L539.4,292.9L540.4,292.1L540.5,292.4L540.2,292.9L540.5,292.8L540.5,294.3L540.2,294.5L540.5,295L539.2,295.4L539.8,294.7L538.2,294.1L538.6,293.8L537.3,293.8L538.1,292.4L539.6,291.4L540.2,291.6L539,292.1ZM471.2,288.6L471.5,289.1L470.9,289.4L471.1,290.2L470.5,291.1L469.5,290.6L467.6,288.8L467.8,288.6L467.1,288.6L467.4,287.2L468.6,286.3L469.7,287.9L471.2,288.6ZM95.5,285.2L96,284.9L97.4,286.4L97.5,287.2L96.9,288.1L95.9,288L94.1,286.3L93.8,285.1L94.6,284.6L95.5,285.2ZM450.4,277.6L451.3,278.3L451.7,278.1L453.4,280.8L451.9,282.5L450.7,280L450.9,279.3L450,278.3L450,277.6L450.4,277.6ZM515.2,277.8L516.2,278.7L516.2,279.3L516.7,278.8L517.2,279L516.9,280.9L517.3,280.7L517.1,281.1L515.8,280.9L515.5,281.7L514.5,281.8L513.5,281.1L514.1,280.4L513.9,279.9L514.7,278.1L513.9,278.1L512.8,276.7L512.9,276.2L515.6,277.6L515.2,277.8ZM445.6,272.2L446.7,272.4L446.9,274.8L446.5,274.3L446.4,275.1L446,275.5L446,275L445,275L444.9,274.6L443.8,275L443.8,274L444.4,273.2L444.2,272.9L445.6,272.2ZM445.1,264.7L445.5,265.2L445.4,265.9L444.7,266.2L444.4,267.3L442.3,268.7L442.8,266.9L443.3,266.6L442.9,266.1L443.1,265.2L442.3,265.2L442.5,264.3L444.4,262.6L444.1,264L445.1,264.7ZM459,265.5L456.7,266.8L456.9,265.7L456.1,265.7L456.7,264.7L456.3,264.5L457.1,263.9L457.1,261.8L458,261.9L458.5,262.7L458.8,263.6L458.4,264.4L459,265L459,265.5ZM418.9,245.8L419.3,246.7L420.1,246.7L419.1,247.2L419.2,247.5L418.5,248.6L418,248.3L417.1,249L415.3,248.3L416.3,247.2L417.1,247.4L417.9,246.2L416.9,246.7L415.8,246.5L416.8,246L416,245.5L417.2,245.8L417.2,245.3L417.9,245L418.9,245.3L418.9,245.8ZM338.9,228.5L338.5,229.3L339.9,229.8L338.9,232.2L340,232.4L339.7,231.9L340.7,232L341.2,232.4L340.7,232.4L341.4,234L339.8,234.2L338.1,231.2L337.9,229.8L337.2,229.1L337.3,228.6L338,228.7L338.3,227.9L338.8,228.1L338.9,228.5ZM420.9,203.8L424.5,205.9L424.3,206.4L426.2,206.9L424.8,208.2L422.6,207.7L422.4,207.3L422.8,206.9L421.4,205.6L420.4,203.8L420.9,203.8ZM429.1,205.4L428.2,206L427.3,205.9L430.8,201L430.6,201.5L431.2,201.6L431.1,202.3L429.1,205.4ZM150.8,152.4L148.9,153L147.8,152.3L148.4,151.1L148.2,150.7L148.7,150.7L151,151.6L150.8,152.4ZM246.7,81.1L246.4,81.3L247.5,81.6L249.6,81.6L252.7,82.7L252.5,83L254.5,83L257,84.6L246.8,82L246.5,82.4L245.1,81.3L246.7,81.1ZM192.4,43.4L192.5,43.8L191.4,43.5L190,42.8L190,42.2L188.7,41.4L187.6,40L188.6,40L190.8,41L191,42L192.4,43.4ZM1147.8,609.1L1151.3,610.2L1149,610.1L1147.8,610.9L1147.1,610.4L1147.5,609.9L1146.9,609.3L1145.7,609.7L1144.8,611.2L1144.7,610.3L1146,608.8L1146.9,608.6L1147.8,609.1ZM712.2,603.7L712.8,603.9L713.4,605.5L712.9,605.7L710.8,603.8L710.1,604.2L709.6,603.2L710.1,602.8L711,602.8L712.2,603.7ZM1114.7,537.9L1115.1,539.5L1112.9,538.1L1111.5,538L1111.6,537.1L1112.4,536.6L1113.9,537.1L1114.7,537.9ZM516,333.1L516.2,334L514.8,334.3L512.9,335.6L512.2,335.5L511.8,334.9L513.2,333.1L513.9,333.4L516.3,332.7L516,333.1ZM526.3,297.3L526.7,298.3L527.1,298.5L526.8,299.1L527.2,299.4L528.4,299.3L528,300.3L526.6,300.4L526,299.4L526.2,298.9L525.8,298.7L525,299.4L524.3,298.8L524.4,297.3L524.7,297.8L526,297.1L526.3,297.3ZM510.9,272.6L511.8,272.9L511.6,273.7L512.2,274L512.8,275.7L511.5,275.7L511.9,275L510.9,275.2L510.9,274.3L509.7,273.5L510,272.7L510.9,272.6ZM419.3,267.3L418.1,267.3L418.2,268L417.9,268.3L414.5,268.9L417,267.1L420.4,266.6L419.3,267.3ZM417.8,255.9L416.8,255.6L417.1,254.8L416.2,254.2L415.9,253L419.8,253L418.9,254.5L418.7,255.6L417.8,255.9ZM533.7,154L535.7,154.4L536.4,154.8L536.5,155.4L534.4,156L532.9,157L531,156.1L531.1,155.4L530.7,154.9L531.1,154.3L531.5,154.6L533.7,154ZM213.5,71.6L215,71.5L215.1,72L213.9,73L211.4,73.7L209.8,73.6L210.4,73.3L210.4,72.8L209.4,72L211.6,71.2L213.5,71.6ZM216.3,60.4L216.5,60.9L217.2,60.9L219,62.3L218.5,62.8L217.8,62.6L213.8,60.9L213.8,60.1L216.3,60.4ZM1099.8,40L1100.3,40.6L1097.4,42.4L1095.2,42.1L1095,41.7L1094,41.9L1093.6,41.3L1094.6,40.1L1099.8,40ZM712.1,630.3L712.1,631.1L711.7,630.6L710.7,628.3L711.3,628.3L712.1,630.3ZM732.5,589.7L731.7,590L730.5,589.3L731.1,588.3L732.5,588.4L732.5,589.7ZM1104.9,519.5L1104.3,519L1105.2,517.9L1107.1,517.6L1104.9,519.5ZM696.1,478.5L697.3,479.5L691.6,477L696.1,478.5ZM686.9,476.1L691.2,476.9L686.9,476.6L682.2,479.3L686.9,476.1ZM70.7,359.7L69.6,360.6L67,359.4L67.6,358.9L70.8,358.9L71.1,359.3L70.7,359.7ZM435.8,353.7L435,353.9L433.3,352.6L434.3,352.1L435.6,352.3L435.4,353.2L435.8,353.7ZM113.4,330.8L110.7,330L113.4,330.1L113.4,330.8ZM120.4,318.5L119.8,318.4L119.7,318L120.3,317.8L120.4,318.5ZM413.3,319.3L412.3,318.3L411.6,316.7L413.3,318.1L413.3,319.3ZM533.2,305.9L530.9,306.2L530.5,305.6L531.4,305.1L533.3,305.2L533.2,305.9ZM483.9,301L483.7,301.5L482.9,301L481.8,301.4L480.8,301.2L480.4,300.5L481.5,299.7L483.9,301ZM520.9,294.3L519.9,294.2L519.5,293.6L519.8,292.9L521.2,292.4L521.8,293.4L521.5,294L520.9,294.3ZM459,292.9L457.8,292.9L455.8,291.3L455.5,290.7L456.3,290.7L458.5,292.1L459,292.9ZM463.6,290.9L462.6,291.7L461.9,291.6L462.9,289.5L464.1,288.8L465.2,288.9L463.6,290.9ZM369.8,288.8L369.8,289.5L369.4,288.8L369,289.1L369.3,287.8L369.8,287.9L369.8,288.8ZM450.5,287.8L450.1,287.9L449,286.7L449.4,286.3L450,286.3L450.6,287L450.5,287.8ZM368.1,286.2L368.4,286.5L367.5,288.1L367.6,286.4L368.1,286.2ZM448.2,284.8L448.8,284.6L449,285.1L448,286.7L447.1,286.6L446.6,285.5L446.7,285.1L447.7,284.5L448.2,284.8ZM472.8,285.3L471.8,285L473.4,283.7L473.4,284.9L472.8,285.3ZM478.9,283.4L477,283.2L478.2,282.3L479.2,283L478.9,283.4ZM462,280.5L462.3,280.9L461.9,280.8L461.3,280.3L460.7,279L461.5,278.1L462.5,277.8L461.7,280.2L462,280.5ZM483.2,275L483.4,275.8L482.4,276L481.9,275L483.4,274.6L483.2,275ZM408.5,270.9L407.7,270.9L406.6,269.9L407.6,269.4L408.4,270L408.5,270.9ZM503.9,266.5L505,267.7L504,267.4L503.4,268.1L503.8,268.7L503.9,269.9L503.6,270L502.8,269L502.9,266.9L503,266.5L503.9,266.5ZM418.2,261.7L416.8,261.8L416.2,261.2L417,261L417.5,260.3L418,261.1L418.7,261.2L418.2,261.7ZM452.8,258.9L450.5,258.5L452.5,257.7L452.8,258.9ZM105,247.1L106.3,247.6L105.6,248.1L104.1,247.8L103.6,247.2L105,247.1ZM98.2,246.5L98.2,246.8L97.8,246.8L96.9,245.6L97.5,245.3L98.2,246.5ZM180,232.4L179.6,232.6L178.6,231.5L178.8,230.3L180,231.7L180,232.4ZM179.1,229.6L178.6,229.7L177.2,228.6L177.5,227.5L179.1,227.4L178.8,227.9L179.4,228.6L178.7,228.6L179.1,229.6ZM162.1,226.7L161.7,226.8L161.6,226.4L162,226.2L162.1,226.7ZM176.2,226.3L176.1,226.7L174.2,225.6L174.8,225.1L176.3,225.2L176.6,225.6L176.2,226.3ZM168.4,226L167.4,225.9L167.2,225L168.1,225.4L168.4,226ZM345.4,226.3L345,226.1L346.4,224.4L345.4,226.3ZM476.5,224.2L477.4,225.3L476.9,226.8L475.7,226.8L475.7,225.8L474.6,224.7L476.5,224.2ZM344.6,225.1L344.4,225.2L344.4,224.5L345.3,223.1L346.6,222.9L346.4,223.6L344.6,225.1ZM342.1,222.2L342.5,222.3L342.5,222.6L341.3,223.6L342.4,224.7L341,223.7L340.6,222.8L342.1,222.2ZM128.9,221.4L128.3,221.3L128.4,220.8L129.5,220.8L128.9,221.4ZM186.3,218.5L185.8,218.6L185.2,218L185.9,217.4L186.6,217.5L186.3,218.5ZM418.4,204.8L418.1,205.5L417.7,205.1L417.3,205.5L416.9,206.4L415.9,205.8L415.1,205.9L415.2,205.3L417.2,203.6L418.4,204.8ZM325.3,204L325.7,204.8L324.7,204.7L323.5,202.8L323.9,202.6L325.3,204ZM433.9,198.8L434.7,199.1L434.6,199.6L434.3,200.5L433.8,200.8L433.2,199.6L433.6,198.6L433.9,198.8ZM459.8,194.9L459.3,192.5L460.3,191.6L461.3,192.3L461.1,193.1L459.8,194.9ZM489.1,182L490.2,182L490.3,182.4L490.1,184.1L487.5,182.8L487.6,182.1L489.1,182ZM533.8,160.8L534.4,161.1L534.1,161.4L532.7,161.1L532.2,160.4L533,159.5L533.9,159.8L533.8,160.8ZM136,149.7L135.6,149.9L135.9,149.4L136,149.7ZM48.8,96.7L48.8,97.3L48.2,97.2L48.6,96.3L48.8,96.7ZM66.3,97.1L65.9,97.5L65.5,97.2L64.1,95.8L64.7,95L65.1,95.1L66.3,97.1ZM42.7,88.6L41.4,88.5L42.4,87.4L42.7,88.6ZM234.2,82L233.9,83L232.8,83.4L232,83L231,83.2L230.7,82.7L231.1,82.2L230.5,82.3L230.7,81.9L232,81.6L234.2,82ZM217.4,57L218.4,57.6L213.9,57.4L214.8,57.3L215.4,56.7L217.4,57ZM199,52L200.7,52.7L198.8,52.4L196.9,51.1L198.2,51.2L199,52ZM190.3,47.2L191.1,47.8L188.7,46.6L186.4,44.3L186.7,44.1L190.3,47.2Z"/>
    <clipPath id="land-clip">
      <use href="#land-shape"/>
    </clipPath>
  </defs>

  <rect x="0" y="0" width="1200" height="695.27" fill="url(#seaGradient)"/>

  <g clip-path="url(#content-clip)">
    <rect x="40" y="40" width="1120" height="615.27" fill="url(#seaGradient)"/>
    <!-- Flat land fill is the fallback while the relief lazy-loads (or if it can't). -->
    <use href="#land-shape" fill="url(#landGradient)"/>
    <!-- Relief is lazy-loaded: MapPanel probes AVIF support and sets href from
         data-src (AVIF) or data-src-fallback (WebP) after first paint. -->
    <image id="relief-layer" data-src="content/maps/relief.avif" data-src-fallback="content/maps/relief.webp"
           x="40" y="40" width="1120" height="615.27"
           preserveAspectRatio="none" clip-path="url(#land-clip)"/>
    <path d="M622.7,235.8L625,235.7L623.9,239.1L624,240L625.9,240.9L627.1,245.4L625.7,247.5L625.2,249.6L624.5,250.1L621.8,247.1L621.6,246.5L623.9,242.5L623.6,241.3L622.8,240.4L621.7,240L621.1,239.2L621.1,237.5L621.7,236.5L622.7,235.8ZM641.6,258.4L641,258.5L640.8,257.8L640.9,254.7L637.1,247.9L636.9,246.8L639.7,245.9L643.7,249.6L644.9,252.6L646.1,252.1L647.7,255.2L647.8,256.2L642.7,257.5L642.4,257.8L642.7,258.6L641.6,258.4ZM757.9,421.1L757.8,424.5L756.8,425.6L756.2,425.6L755.9,424.3L754.5,422.1L754.7,421.1L756.6,419.5L757.6,420L757.9,421.1ZM1021.1,159.8L1019.8,159.7L1018.9,159L1019.1,158.4L1020.4,157.6L1019.4,156.5L1019.3,155.7L1019.6,155.3L1022.5,156.1L1026.2,158.5L1028.3,160.3L1028.5,161.1L1029.8,161.4L1030,160L1031.4,160.7L1033.7,163.5L1036.3,164.9L1038.2,167.3L1038.7,169L1038.5,169.9L1037.6,170.9L1035.8,170.9L1034.2,171.7L1032.4,171L1030.7,172L1028,171.7L1026.5,169.9L1026.2,168.5L1026.3,164L1025.8,163.1L1024.6,163.5L1023.6,163.1L1023.4,161.4L1022.5,161.2L1021.1,159.8ZM305.5,104.5L305.5,106.1L303.9,105.9L298.9,103.4L297.8,102.3L297.4,100.7L295,100.3L295.3,100L295,98.6L294.2,97.9L294.6,97.7L296.1,99.1L296.6,98.9L297.1,99.3L298.4,99.1L301.4,99.6L301.7,99.1L301.1,99.3L300.9,98.6L302.2,98.8L302.6,97.8L304.2,96.8L302.6,99.2L302.2,100.5L305.4,103.5L305.5,104.5ZM342.9,138.7L342.6,139.3L342.7,141.9L342,144.1L342.2,144.8L340,145.8L338.5,145.6L337.7,142L338.3,140.2L337.7,139.8L338.3,136.6L340.2,136.6L341.3,137.3L341.6,138.1L342.9,138.7ZM95.4,86.5L96,87.2L95.6,89.8L94.3,90L92.1,88.1L92.1,87.4L93,86.4L94.5,86L95.4,86.5ZM348.7,147.8L348.2,148.8L345.8,150.7L345.4,150.2L346.4,148.8L346.3,148L347.1,147.4L346,146.2L346.4,145.7L346.6,146.5L347.6,145.6L346.4,144.6L345.7,144.5L345.4,143.6L347,142L349.2,142.3L350.2,143.6L351.4,147.3L350.2,148.8L349.7,148.1L348.7,147.8ZM351.3,149.4L351.6,150.7L350.8,151.9L347.9,153.5L350.2,151.7L350.4,150.9L349.5,149.9L350.7,149L351.2,149L351.3,149.4ZM1074.4,148.3L1065.3,145.7L1058.8,146.4L1057.5,146L1058.4,145.1L1061.6,144.6L1062.7,143.4L1060.3,140.8L1063.4,141.1L1065.4,140.3L1066.1,140.6L1066.4,141.9L1068.2,143.8L1073.2,145.8L1075.1,147.4L1080,149L1080.5,150.3L1078.4,149.5L1076,150.2L1074.4,148.3ZM976.5,407.4L975,407.1L972,405L972.3,404.1L974,403.2L974.4,400.8L975.9,401.8L976.1,403.4L977.5,404.7L978.3,404.8L978.8,403.8L980,404.5L980.7,406L979.8,408.3L977.6,409.5L977.1,409.7L976,409.1L976.5,407.4ZM972.4,391.3L971.7,391L971.3,391.4L970.2,390.3L969.6,389.3L970,389.1L969.8,388.8L967.8,386.6L966.2,383.6L966.5,382.7L965.9,381.8L966.3,381.4L966.2,380L966.5,379.2L965.9,378.9L966.1,375.8L965.4,373.2L966.2,371.7L966.1,370.1L966.4,369.9L967.1,371.3L967.2,370L968.3,371.1L968.4,372.1L968.1,373.2L968.7,373.6L970.1,376.9L970.7,377.1L971.2,378L972.3,378.3L972.3,379.5L973,378.6L973.2,380.2L974,380.4L974.2,381.4L975.1,380.6L975.5,380.6L976.3,381.4L976.5,383L978.1,384.4L978.2,386.1L976.7,386.1L978.4,387L977.2,387L977.1,388.6L977.8,389.5L977.1,391.9L976.4,392.3L972.6,391L972.4,391.3ZM834.7,227.6L833.9,226.6L833.4,224.6L834.6,222.2L835.1,221.5L836.5,220.9L837.2,219.8L837.7,220.7L837.4,221.3L835.2,222.8L834.3,224.5L834.5,226.1L837.2,227.7L842.8,229.8L845.3,230L847.6,229.2L848.6,231.8L851,233.3L851.9,233.6L854.1,233.2L852.7,234.1L850.3,234.5L849.2,235.2L849.9,233.4L848.9,233L846.6,230.6L843.6,231.3L841.8,230.4L836.5,228.8L834.7,227.6ZM841.2,260.5L840.9,260.8L840.8,262.5L840.1,263L839.3,262.8L838.6,263.1L839.6,264.8L839.1,265L837.7,264.1L833.4,262.8L830.9,258.9L831.2,258.3L832.6,258.7L833,259.9L833.5,259.7L833.8,258.6L833.5,256L834.9,257L835.2,256.7L836.3,256.9L836.8,258L835.8,257.8L835.6,258.5L834.8,258.8L834.5,259.6L834.5,261.9L834.8,262.3L835.7,261.4L837.6,260.7L838.2,259.4L841.4,258.1L841.6,257L843.7,257.1L844.7,256.7L842.7,253.7L842.4,252.4L842.7,252L844.3,255.4L845.7,256.7L846.6,256.7L846.8,256.3L846.1,255.4L846.8,254.8L848.5,254.5L848.4,253.4L850.1,252.6L850,252.1L848.8,252.8L848.7,251.6L849.9,250.4L850.6,250.5L851.5,248.5L852,249.2L851.8,251L851.2,251.6L851.4,252.1L851.2,253.6L850.5,253.7L850,254.4L850.2,255L849.6,255.4L850.5,255.4L850.6,255.7L847.7,255.8L847.6,256.2L848.7,256.9L848.7,257.4L847.4,257.4L842.4,258.4L841.2,260.5ZM839.6,317.2L840.1,317.2L839.7,318.5L838.5,319.1L838.3,318.8L836.8,320.2L836.4,319.9L835.5,320L835,318.7L834.1,319.7L834.3,321.2L833.8,320.5L832.7,320.8L833.4,319L832.9,318.3L831.1,317.6L829.7,315.8L827.8,315.2L827,314.4L827.1,313.8L826.1,313.7L826.4,313.2L825.5,312.5L824.5,310.9L824.7,308.5L826.6,306.1L826.9,304.9L828,304.3L828.5,304.5L829,301.7L829.5,302L830.3,304.8L828,306L827.5,306.8L827.8,307.6L826.6,308.9L827.3,311L828.2,311.6L828.9,313L829.9,313.2L830.1,313.7L831.1,313.7L831.5,314.5L833.8,315.5L834.4,316.2L835.3,315.9L835.9,314.6L837.5,317.3L837.9,316.7L838.4,317.2L839.2,316.7L839.6,317.2ZM875.8,221.5L876.1,221.5L876.1,222.1L875.7,223.2L874,224.2L871.3,222.7L869.4,223L868.4,222.8L867.2,223.7L863.6,224.8L862.4,224.8L861.9,224.2L862.2,223.8L863.4,223.3L865.4,221.2L865.2,219L864.7,219L864.4,218.4L862.7,219L862.3,217.9L860.6,217.5L858.9,215.8L858.1,216L858.3,216.6L857.9,216.8L855.8,215.5L855.3,215.7L854.7,217L854.3,216.5L854.4,215.1L853.8,215L852.8,215.5L851.6,215L850.9,215.5L850.1,215.1L848.3,216.3L846.4,215.8L845.8,217.5L845,216.7L845.8,215.8L845.6,215.3L844.3,214.4L842.7,214.4L841.9,212.1L842,211.3L843.1,213.7L844.3,213.5L845.4,211.9L845.5,211L843.9,210.3L843.6,209.8L844.9,209.9L844.5,208.3L845,208.2L845.6,209.6L846.6,210.4L846.7,211.5L847.7,213L846,213.7L848.5,213.7L847.9,213L848.5,211.9L848.5,211.1L849.7,209.9L849.1,212L849.8,213.3L850.8,213.3L850.6,212.7L851,212.3L851.6,213.4L852.6,213L853.3,214.4L853.9,214.1L854.7,214.6L858.2,215.3L859.3,214.6L860.7,216.6L862.3,217L863.3,218.4L863.8,218L864.9,218.6L866.1,218.4L866.8,217.2L868.1,216.5L868.7,214.7L868.1,212.5L868.7,212.5L869.2,213.1L869.3,214.1L868.9,216L874.4,215.8L873.4,216.2L869.3,216.5L866.8,217.5L865.7,219.4L866,221.1L867.6,222.1L871.1,222.1L873.1,223L875.1,222.4L875.8,221.5ZM987.1,425.4L989.1,426.1L989,429L988.5,430.1L986.5,431.5L985.5,432.9L985.2,432.5L984.7,432.7L985,432.2L984.6,431L984,431.5L983.8,430.8L983.1,430.8L982.7,432L982.2,431.4L982.3,430.3L983,430.3L982.6,430.1L981.1,430.6L981.7,429.9L980.3,429.4L980.1,430L979.1,429.8L978,429.2L976.5,427L976,425.9L976.3,425.2L975.9,425L976.1,423.9L975.5,422.6L975.9,422.8L976.6,421.6L975.3,420.2L976.3,419.8L977.2,420.2L976.8,419.8L977.6,419L977.8,417.9L976.7,416.5L977.6,415.1L978.1,415.4L978.7,414.9L978.6,412.4L979,412.1L979,413.5L979.6,414.6L981.5,415.6L981.3,416.3L984.5,423.7L985.1,424.5L987.1,425.4ZM755.7,458.2L756.4,458.6L756.5,459.4L755.5,466L756,468.4L755.3,473L754.4,473.9L754,473.5L754.3,471.8L753.8,471.8L752.4,473.3L751.6,473.2L751,469.5L751,466.8L751.6,465L751.4,463.3L753.3,459.4L754.2,458.5L755.7,458.2ZM1045.3,265.6L1045.4,266.9L1044.5,266.5L1043.4,267.1L1042.8,268.2L1041,269.5L1039.7,269.2L1039.6,268.2L1038.5,268.7L1037.5,270.2L1037.3,272.7L1036.8,274.2L1035.9,275L1034.3,274.3L1034,274.8L1033,275.1L1031.1,272.6L1030,272.1L1029.5,270.7L1028.9,270.2L1028.5,267.8L1027.9,266.8L1029.1,265.9L1028.2,263L1027.3,262L1027.9,259.7L1027,258.6L1027.4,258.3L1026.6,256.4L1027.3,255.5L1027.1,253.3L1026.2,251.7L1024.7,250.6L1024.1,250.9L1021.7,250L1021.3,246.7L1021.7,245.5L1022.6,244.6L1025.1,243.8L1025.6,241.2L1024.8,239.4L1023.9,240.6L1023.1,239.7L1021.4,240.8L1020.1,240.4L1020.1,239.1L1020.4,239.2L1020.9,238.1L1021.4,238L1021.3,236.5L1022.6,235.9L1030.1,236L1033.6,239.4L1034.1,241.8L1033.3,243.6L1033.6,243.9L1033.3,245L1033.7,245.5L1032.7,246L1033.1,246.5L1031.4,248.5L1031.8,252L1033.8,254.4L1034.5,254.1L1034.6,253.2L1038.1,253L1040.8,254.9L1041.2,254.4L1041.3,255.4L1042.3,256.5L1042.1,257.3L1038.5,257.4L1039.7,258.3L1040.3,260L1041.4,261.1L1042.2,261.3L1042.7,262.9L1044,264.8L1045.3,265.6ZM1035.2,267.5L1035.6,267.6L1034.8,265.7L1035.2,265L1034.8,264.5L1033.9,264.4L1034.2,265.2L1033.5,265.6L1034.9,266.5L1035.2,267.5ZM1038.3,262.6L1038.7,262.9L1038.6,262.1L1036.9,261.9L1036.5,261.2L1035.9,261.8L1035.8,262.6L1037.1,263.6L1038.3,262.6ZM696.1,212.3L695.8,212.9L696.2,213.9L695.6,215.4L695.9,216L699.3,219.4L699.5,219.1L699.3,217.6L700.2,214.6L700.4,216.2L701.6,218.2L702,220.1L703.2,222.5L704.8,223.3L703.9,223.8L701.6,224.1L700.8,224.7L700.5,226.3L699.2,228.5L697.9,227L693.9,225.2L692.3,223.3L688.3,220.9L687.9,219.9L689.7,214.2L690.1,213.6L693,213L693.3,212.4L693.3,211.1L692.5,209.2L692.9,207.8L691.9,206.4L693.5,205.7L696.4,209.4L697.2,211.6L696.1,212.3ZM967.7,234.3L964.5,234.3L963.8,233.6L962.2,233.3L962.7,232.2L961.1,231.2L961.3,230.3L961.9,230.8L962.3,230.3L961.9,229.6L960.4,229.6L960.4,229L960.9,228.9L960.4,228.2L960.5,227.8L960,228.9L958.5,228.6L958.3,229.5L957.7,230L955.4,230.1L954.6,228.9L952.8,228.5L952.1,227.7L950,229L949.3,228.5L948.8,227.4L947.5,228.1L946.8,227.7L945.2,228.4L944.6,228.4L944.4,227.7L945.8,227L946.9,225.4L947.8,225.2L947.5,224L949.8,223.7L949.2,223.3L948.2,221L948.3,220.5L949.1,219.9L952.8,218.5L956.5,217.6L958.7,218.2L961.7,217.9L962.8,218.3L966.6,217.6L968.9,216.2L969.8,214.6L967.8,214.1L967.1,215.1L968,215L968.1,215.5L967.6,216L966.7,215.8L966,214.6L966,213.3L968.5,212.7L969.7,213L971.6,212.2L972.8,212.5L972.6,211.6L973.8,212L973.9,211.4L975.2,210.9L980.5,211.6L982,212.3L982.5,212.7L982,213L982.5,213.2L979,213.9L978,215.3L976,215.7L974.9,217L974.4,216.3L973.5,216.2L972.6,216.5L972.2,218.5L970.1,219.3L969.9,220.5L968.9,221.7L968.4,223.3L966.3,224.2L966.5,224.4L967.5,223.9L969.3,223.9L970.1,225L972.9,226.6L973.1,228.5L972.6,230.1L971.5,230L968.5,232L968.1,232.6L968.3,233.9L967.7,234.3ZM754.3,477.5L754.9,478.6L754.1,479.6L754.5,480.6L753.6,481.3L752.9,481.4L751.2,480.9L750,477.2L750.4,476.3L751.2,476.5L751.8,475.8L753.3,477.2L754.3,477.5ZM1067.8,492.9L1069,492.6L1069.6,493.1L1069.2,493.1L1069.3,493.8L1068.3,493.5L1067.2,492.9L1067.8,492.9ZM1092.9,494.2L1093.5,494.5L1093.7,495.2L1091.1,495.9L1090.8,495.4L1089.3,496.4L1088,496.4L1087.3,496.1L1086.9,494.6L1081.3,494.3L1078.6,493.3L1078.9,492.7L1078.7,492.4L1076.2,493.2L1075.7,493.5L1076.1,493.8L1075.6,493.9L1075.1,493.6L1075.5,492.9L1074.2,492.6L1074,491.5L1073.4,491.3L1071.7,492.4L1073.4,493.1L1073.5,493.6L1072,494.3L1071.2,494.1L1070.1,493.1L1071.8,491.7L1070.3,491.7L1069.9,491.2L1070.5,490.3L1068,490.8L1067.4,490.5L1068.6,489.6L1068.3,489L1067.1,488.2L1069.7,487.6L1070.3,486.8L1070.1,487.5L1070.5,487.9L1070.6,487L1071.3,486.7L1071.7,487.4L1073.2,487.3L1073.2,488.4L1073.4,487.7L1075.1,488.7L1074.9,489.1L1076.9,490.5L1076.7,490.8L1077.2,491L1078.5,489.8L1079.2,489.9L1079.4,490.2L1078.6,490.5L1081.4,490.9L1082.2,491.9L1081.8,492.1L1081.8,492.6L1083.5,492.6L1084.7,493.1L1085.5,492.9L1087.3,490.5L1090.1,490.8L1090.4,491.2L1089.5,492L1088.3,492.6L1086.6,492.6L1087.1,493.4L1090.6,493.1L1091.1,493.6L1092.8,493.6L1092,493.6L1092.9,494.2ZM671.7,512.4L671.2,511.4L671,511.6L671,510.7L669.8,509.5L668.8,510.3L665.3,508L664.3,506.7L664.6,504.9L666.4,503.9L666.8,504.1L668.5,506.7L668.9,508.6L671.8,510L672,511.3L671.7,512.4Z" fill="#9fc8df" stroke="#7fb0cf" stroke-width="0.4"/>
    <path d="M856.8,230.6L866.3,227.4M866.3,227.4L869.4,229.3M869.4,229.3L871.3,232.2M871.3,232.2L879.6,232.2M879.6,232.2L880.7,235.1M880.7,235.1L885.4,238.2M885.4,238.2L883.9,241.2M883.9,241.2L887.5,242.2M887.5,242.2L886.5,249.4M886.5,249.4L887.2,250.6M887.2,250.6L891.6,251.6M891.6,251.6L903.6,250.9M903.6,250.9L914.1,253.9M914.1,253.9L929.4,253.5M929.4,253.5L932.1,259M932.1,259L931.3,264.1M931.3,264.1L936.8,264.5M936.8,264.5L941.4,267.3M941.4,267.3L942.2,269.4M942.2,269.4L944.2,269.5M944.2,269.5L945.9,271.5M945.9,271.5L945.4,273.4M945.4,273.4L946.5,277.1M946.5,277.1L948.7,280.5M948.7,280.5L950.2,280.2M950.2,280.2L950.4,284.6M950.4,284.6L953.1,286.5M953.1,286.5L955.3,286.1M955.3,286.1L957.9,288.1M957.9,288.1L957.1,289.1M957.1,289.1L961,289.3M961,289.3L961.3,291.3M961.3,291.3L959.3,291.5M959.3,291.5L957,296.2M957,296.2L962.2,296.7M962.2,296.7L964,299.5M964,299.5L967.5,299.9M967.5,299.9L972.5,308.6M972.5,308.6L974.1,317.5M974.1,317.5L972.8,318.1M972.8,318.1L972.7,320.5M972.7,320.5L972.1,322.5M972.1,322.5L972.9,323.9M972.9,323.9L970.8,325.6M970.8,325.6L971.5,333.6M971.5,333.6L974.2,335.8M974.2,335.8L973.8,338M973.8,338L975.8,338.6M975.8,338.6L975.1,340.8M975.1,340.8L980.3,346.6M980.3,346.6L978.6,349.9M978.6,349.9L980.2,354.8M980.2,354.8L982.9,357.5M982.9,357.5L984.1,362.9M984.1,362.9L985.6,363.7M985.6,363.7L987.2,374.2M987.2,374.2L991.2,378.9M991.2,378.9L1000.2,380.4M1000.2,380.4L1004.5,384M1004.5,384L1002.9,389.2M1002.9,389.2L1003.9,391.2M1003.9,391.2L1000.6,397.2M1000.6,397.2L1002.6,405.9M1002.6,405.9L1004.5,406.1M1004.5,406.1L1005.6,410.1M1005.6,410.1L1008.1,413.5M1008.1,413.5L1010.6,415.4M1010.6,415.4L1012.7,415.2M1012.7,415.2L1012.4,416.9M1012.4,416.9L1015.5,417M1015.5,417L1019.1,420.2M1019.1,420.2L1021.7,419.6M1021.7,419.6L1020.8,421.2M1020.8,421.2L1022.9,423.3M1022.9,423.3L1027.5,423.7M1027.5,423.7L1027.2,426.5M1027.2,426.5L1030.6,428M1030.6,428L1031.9,430.6M1031.9,430.6L1034.3,429.8M1034.3,429.8L1034.7,431.9M1034.7,431.9L1038.5,430.9M1038.5,430.9L1042.7,433M972.7,320.5L972.7,320.5M1042.6,432.7L1050.9,427.8M1050.9,427.8L1054.5,430.9M1054.5,430.9L1066.8,434.1M1066.8,434.1L1069,437.9M1069,437.9L1067.4,443M1067.4,443L1068.1,445.8M1068.1,445.8L1072.2,448.1M1072.2,448.1L1075,454.6M1075,454.6L1078.8,453.7M1078.8,453.7L1079.8,454.8M1079.8,454.8L1080.2,460M1080.2,460L1088.2,471.5M1088.2,471.5L1088.2,483.7M1042.7,433L1042.8,434.6M1042.8,434.6L1046.1,436.3M1046.1,436.3L1045.8,440.4M1045.8,440.4L1048.3,443.5M1048.3,443.5L1046.8,452.2M1046.8,452.2L1050.1,454.9M1050.1,454.9L1051.6,467.2M1051.6,467.2L1054.4,473.3M1054.4,473.3L1059.7,478.8M1059.7,478.8L1058.3,485.6M634.6,514.3L629.9,511M629.9,511L627.7,511.2M627.7,511.2L625.7,507.1M625.7,507.1L623.3,507.1M623.3,507.1L624.6,505.8M624.6,505.8L623.6,504.8M623.6,504.8L623.8,499.9M623.8,499.9L621.7,494.1M621.7,494.1L622.2,492.4M622.2,492.4L621.1,492.4M621.1,492.4L622.9,490.3M622.9,490.3L621.3,490.3M621.3,490.3L622.2,488.9M622.2,488.9L621.2,488.3M621.2,488.3L621.4,484.9M621.4,484.9L619.6,481.2M619.6,481.2L616,477.5M616,477.5L614.7,477.7M614.7,477.7L613.8,476.2M613.8,476.2L614.5,473.2M614.5,473.2L612.8,472.5M612.8,472.5L611.2,469.2M671.7,512.4L671.1,510.3M671.1,510.3L668.1,508.6M668.1,508.6L666.1,504M666.1,504.1L664.3,499.2M664.3,499.2L665.6,493.9M665.6,493.9L664.8,475M671.7,512.3L672.2,518.2M632.1,512.6L630.9,507.2M630.9,507.2L629.6,505.7M629.6,505.7L631,505.5M631,505.5L634.4,499.4M634.4,499.4L635.3,499.7M635.3,499.7L635.6,496M635.6,496L634,489.9M634,489.9L635.1,489.4M635.1,489.4L635.1,485.6M635.1,485.6L639,482.5M639,482.5L641.3,478.1M641.3,478.1L645.2,477.7M645.2,477.7L648.1,471.3M648.1,471.3L650.7,469.9M650.7,469.9L651.7,466.4M634.7,514.4L636.3,514.1M636.3,514.1L639.3,507.4M639.3,507.4L648.1,500.2M648.1,500.2L664.5,498.3M756.8,419.4L756.2,425.6M751.8,473.2L753.4,462.4M753.4,462.4L755.7,458.2M764.2,395.6L758.6,402.7M758.6,402.7L756.6,409.8M756.6,409.8L756.8,419.4M756.2,425.6L755.4,432.4M755.4,432.4L756.2,433.4M756.2,433.4L755.3,436.2M755.3,436.2L756,442M756,442L754.6,448.2M754.6,448.2L755.7,458.2M751.9,473.3L751.2,476.5M401.3,40L400.8,40.2M400.8,40.2L400.2,44.9M400.2,44.9L407.7,45.2M407.7,45.2L413.1,43.9M413.1,43.9L413.1,43.9M413.1,43.9L436.4,48.4M436.4,48.4L445,46.7M445,46.7L451.7,48.8M451.7,48.8L459,48.6M459,48.6L471.3,52M471.3,52L481.9,49.2M481.9,49.2L491.2,40M491.2,40L491.3,40M677.9,655.3L678,655M678,655L677.4,651.5M677.4,651.5L674.2,649.1M674.2,649.1L666.5,652.9M666.5,652.9L665.1,652.4M665.1,652.4L663.4,654.3M663.4,654.3L659.3,647.8M659.3,647.8L656.5,649.1M656.5,649.1L656.4,646.4M656.4,646.4L651.1,641.1M651.1,641.1L650.6,636.8M650.6,636.8L647.7,636.7M647.7,636.7L648,633.9M648,633.9L645.8,633.1M645.8,633.1L635.8,615.7M635.8,615.7L632.6,613.6M632.6,613.6L631.2,614.2M631.2,614.2L631.1,611.9M631.1,611.9L629,611.4M629,611.4L623.8,605.4M623.8,605.4L625.2,597.9M625.2,597.9L624.8,593.7M624.8,593.7L623.6,592M623.6,592L623.4,585.6M623.4,585.6L620.9,582.4M620.9,582.4L620.8,575.9M620.8,575.9L623.4,571.6M623.4,571.6L623.4,565.5M623.4,565.5L625.5,558.5M625.5,558.5L634.2,544.8M634.2,544.8L634,538.1M634,538.1L636.5,529.9M636.5,529.9L635.5,527.7M635.5,527.7L636.1,522.5M636.1,522.5L634.2,518.3M634.2,518.3L634.6,514.3M907.8,367.2L912.5,369M912.5,369L914.1,368.3M914.1,368.3L913,367.3M913,367.3L914.3,366.5M914.3,366.5L915.5,367.6M915.5,367.6L916.3,366.2M916.3,366.2L920.1,367.3M920.1,367.3L919.9,365.7M919.9,365.7L920.6,367.2M920.6,367.2L922.8,367.3M922.8,367.3L924.7,365.4M924.7,365.4L928,366.2M928,366.2L929.8,364M929.8,364L931.6,365.6M931.6,365.6L935.1,365.7M935.1,365.7L940,372.3M940,372.3L942.9,371.1M942.9,371.1L943.8,372.5M943.8,372.5L944.3,370M944.3,370L945.4,369.9M945.4,369.9L946.8,371.9M946.8,371.9L944.8,374.1M944.8,374.1L946.8,375.3M946.8,375.3L946.4,378.8M946.4,378.8L947.9,381.2M947.9,381.2L949.8,380.2M949.8,380.2L951.6,382.8M951.6,382.8L950.8,386.3M950.8,386.3L952.3,387M952.3,387L954,385.2M954,385.2L956.5,386.1M956.5,386.1L956.9,390.5M956.9,390.5L955.9,391.4M955.9,391.4L959.8,394.3M959.8,394.3L962.1,397.9M962.1,397.9L965.8,399.1M965.8,399.1L967.3,397.6M967.3,397.6L971.4,400.6M971.4,400.6L974,399.9M974,399.9L977.9,402.2M977.9,402.2L982,402.4M982,402.4L985.1,404.1M985.1,404.1L988.1,409.7M988.1,409.7L989.4,408.7M989.4,408.7L990.8,410.7M990.8,410.7L994,411.1M994,411.1L993,411.6M993,411.6L996.4,414.9M996.4,414.9L996.9,418.2M996.9,418.2L1000.1,422.8M1000.1,422.8L998.2,430.7M998.2,430.7L1001.9,440.8M1001.9,440.8L1002,446.1M1002,446.1L1005.4,452.4M1005.4,452.4L1005.8,461.8M1005.8,461.8L1013.7,468.4M1013.7,468.4L1015.8,467.6M1015.8,467.6L1018.2,469.6M1018.2,469.6L1023.7,469.7M1023.7,469.7L1025.6,470.6M1025.6,470.6L1026.7,473.2M1026.7,473.2L1033.1,473.9M1026.7,473.2L1026.7,473.2M1033,473.9L1034.9,474.5M1034.9,474.5L1035.9,477.4M1035.9,477.4L1049.1,480M1049.1,480L1062.3,488.3M1062.3,488.3L1069,485.7M1069,485.7L1084.3,486.1M1084.3,486.1L1088.1,483.8M1088.1,483.8L1089.1,485.4M845.5,217.3L846.8,215.2M846.8,215.2L844.7,208.2M837.2,219.8L833.8,224.7M833.8,224.7L835.3,227.7M835.3,227.7L843.3,230.7M843.3,230.7L846.7,230M846.7,230L850.8,233.8M850.8,233.8L854.1,233.2M851.5,248.5L851.4,250.9M851.4,250.9L848.9,252.3M848.9,252.3L850.7,251.9M850.7,251.9L851,253.2M851,253.2L848.9,253.9M848.9,253.9L849.8,254.9M849.8,254.9L846.4,255.4M846.4,255.4L848.3,257M848.3,257L842.1,257.9M842.1,257.9L837.9,262.2M837.9,262.2L833.2,262.5M920.8,170.6L915.8,177.4M915.8,177.4L904.4,179.5M904.4,179.5L893.1,178.3M893.1,178.3L884.5,180.1M884.5,180.1L883.9,181.7M883.9,181.7L887.3,186M887.3,186L885.6,187.9M885.6,187.9L885.1,190.7M885.1,190.7L882.9,191.8M882.9,191.8L864.6,186.9M864.6,186.9L860.6,189.4M860.6,189.4L848.2,191M848.2,191L843.9,193.8M843.9,193.8L841.7,193.4M841.7,193.4L836.8,195.4M836.8,195.4L834.1,197.3M834.1,197.3L834.3,198.2M834.3,198.2L841.4,205M841.4,205L843.9,205.2M843.9,205.2L844.7,208.2M845.5,217.3L841.3,219.5M841.3,219.5L837.2,219.8M854.1,233.2L856.1,234.6M856.1,234.6L855.2,238.5M855.2,238.5L858.2,238.1M858.2,238.1L859.2,239.9M859.2,239.9L858.3,242.9M858.3,242.9L854,245.1M854,245.1L853.1,247.6M853.1,247.6L851.5,248.5M833.2,262.5L829,265.2M829,265.2L826.6,263.8M826.6,263.8L823.7,264.1M823.7,264.1L819.9,268.9M819.9,268.9L820.3,277M820.3,277L823.4,277.6M823.4,277.6L823,279.3M823,279.3L825.1,283.4M825.1,283.4L824.7,284.9M839.7,318.1L832.4,316.3M832.4,316.3L826.4,311.6M826.4,311.6L825.7,308.6M825.7,308.6L829.3,304.4M829.3,304.4L829.1,301.7M824.7,284.9L825.9,289.2M825.9,289.2L829.9,291.3M829.9,291.3L832.2,295.4M832.2,295.4L829.7,298.5M829.7,298.5L829.1,301.7M839.7,318.1L844.2,318.6M844.2,318.6L844.8,316.5M844.8,316.5L846.8,315.8M846.8,315.8L853,315.9M853,315.9L859.9,319.3M859.9,319.3L863.1,318.6M863.1,318.6L863.7,320.2M863.7,320.2L868.6,320.5M868.6,320.5L868.7,321.6M868.7,321.6L869.4,320.5M869.4,320.5L874.5,322.5M874.5,322.5L875.3,326.3M875.3,326.3L877.7,329.6M877.7,329.6L881.7,331.9M881.7,331.9L882.9,335M882.9,335L884.8,336.5M884.8,336.5L886.5,337.8M886.5,337.8L887.5,337.1M887.5,337.1L887.1,338.5M887.1,338.5L888.2,338M888.2,338L891.7,340.4M891.7,340.4L892.1,344.8M892.1,344.8L893.2,345.4M893.2,345.4L892.4,346.4M892.4,346.4L895.8,349.1M895.8,349.1L897.9,354.6M897.9,354.6L902.5,356.9M902.5,356.9L902.6,358.9M902.6,358.9L906,360.7M906,360.7L906.1,365.8M906.1,365.8L907.8,367.2M1089.1,485.4L1093.3,491.7M1093.3,491.7L1096.4,493.1M1096.4,493.1L1097.2,498.5M1097.2,498.5L1100.5,501.9M1100.5,501.9L1107.6,503.2M1107.6,503.2L1109.6,507.5M1109.6,507.5L1112.5,507.8M1112.5,507.8L1115.4,511.6M1115.4,511.6L1114.7,513.6M1114.7,513.6L1116.7,518.5M1116.7,518.5L1118.9,519.9" fill="none" stroke="#8fb8d2" stroke-width="0.7" stroke-linecap="round" stroke-linejoin="round"/>
    <!-- Crisp coastline on top of the relief. -->
    <use href="#land-shape" fill="none" stroke="#9c8a5c" stroke-width="0.5"/>
  </g>

  <rect x="40" y="40" width="1120" height="615.27" fill="none" stroke="#9a8a5e" stroke-width="1"/>
</svg>
