<svg xmlns="http://www.w3.org/2000/svg" viewBox="0 0 100 100"><path d="M77.3 20.3h-1.5v-1.6c0-2.5-2.1-4.6-4.7-4.6h-1.6v-1.6c0-2.6-2-4.7-4.7-4.7H22.7a4.7 4.7 0 0 0-4.7 4.7V75c0 2.6 2 4.7 4.7 4.7h1.5v1.5c0 2.6 2.1 4.7 4.7 4.7h1.6v1.6c0 2.6 2 4.7 4.7 4.7h42.1c2.6 0 4.7-2.1 4.7-4.7V25c0-2.6-2-4.7-4.7-4.7m0 3.1q1.5.1 1.6 1.6v43.7h-3.1V23.4zm-6.2-6.2q1.5.2 1.6 1.5v43.8h-3.2V17.2zM30.5 70.3H57q1.5.1 1.6 1.6c0 1.5-.7 1.5-1.6 1.5H30.5q-1.5-.2-1.6-1.5.1-1.8 1.6-1.6m-1.6-6.2q.1-1.5 1.6-1.6H57q1.5.1 1.6 1.6c0 1.5-.7 1.5-1.6 1.5H30.5q-1.5-.2-1.6-1.5m25.3-17a1.6 1.6 0 0 1-1.5 1.8q-.4 0-.7-.2l-8.3-3.6-8.2 3.6q-.8.4-1.6-.1-.7-.6-.6-1.4l.9-9-6-6.8q-.6-.7-.4-1.5.4-1.1 1.2-1l8.8-2 4.6-7.8c.6-1 2.1-1 2.7 0l4.6 7.8 8.8 2a1.6 1.6 0 0 1 .8 2.5l-6 6.8zm12.2 9.1v3.2H21.1v-3.2zm-39 25v-1.5h37.4c2.6 0 4.7-2.1 4.7-4.7v-9.4h3.2v15.6q-.1 1.5-1.6 1.6H28.9q-1.5-.1-1.6-1.6m50 7.9H35.1q-1.5-.1-1.6-1.6v-1.6H71c2.6 0 4.7-2 4.7-4.7V72h3.1v15.6q-.1 1.5-1.6 1.6" fill="currentColor"/><path d="m47.3 29-3.6-6-3.5 6q-.4.7-1 .8l-7 1.5 4.8 5.3q.4.4.4 1.2l-.7 7L43 42l.6-.2q.4 0 .7.2l6.4 2.8-.7-7q0-.7.4-1.2l4.7-5.3-6.9-1.5q-.6 0-1-.7" fill="currentColor"/></svg>
